<?xml version="1.0" encoding="UTF-8"?>
<!DOCTYPE svg PUBLIC "-//W3C//DTD SVG 1.1//EN" "http://www.w3.org/Graphics/SVG/1.1/DTD/svg11.dtd">
<svg xmlns="http://www.w3.org/2000/svg" version="1.1" width="500px" height="500px" style="shape-rendering:geometricPrecision; text-rendering:geometricPrecision; image-rendering:optimizeQuality; fill-rule:evenodd; clip-rule:evenodd" xmlns:xlink="http://www.w3.org/1999/xlink">
<g><path style="opacity:1" fill="#4bfda4" d="M -0.5,-0.5 C 15.5,-0.5 31.5,-0.5 47.5,-0.5C 47.1667,166.167 46.8333,332.833 46.5,499.5C 30.8333,499.5 15.1667,499.5 -0.5,499.5C -0.5,332.833 -0.5,166.167 -0.5,-0.5 Z"/></g>
<g><path style="opacity:1" fill="#47faa1" d="M 47.5,-0.5 C 58.1667,-0.5 68.8333,-0.5 79.5,-0.5C 80.4039,166.048 80.4039,332.715 79.5,499.5C 68.5,499.5 57.5,499.5 46.5,499.5C 46.8333,332.833 47.1667,166.167 47.5,-0.5 Z"/></g>
<g><path style="opacity:1" fill="#44f79d" d="M 79.5,-0.5 C 95.5,-0.5 111.5,-0.5 127.5,-0.5C 127.264,1.04912 127.264,2.54912 127.5,4C 126.5,5 125.5,6 124.5,7C 125.5,8 126.5,9 127.5,10C 126.167,10.6667 126.167,11.3333 127.5,12C 126.5,13 125.5,14 124.5,15C 125.5,16 126.5,17 127.5,18C 126.167,18.6667 126.167,19.3333 127.5,20C 126.5,21 125.5,22 124.5,23C 125.5,24 126.5,25 127.5,26C 126.167,26.6667 126.167,27.3333 127.5,28C 126.5,29 125.5,30 124.5,31C 125.5,32 126.5,33 127.5,34C 126.167,34.6667 126.167,35.3333 127.5,36C 126.5,37 125.5,38 124.5,39C 125.5,40 126.5,41 127.5,42C 126.167,42.6667 126.167,43.3333 127.5,44C 126.5,45 125.5,46 124.5,47C 125.5,48 126.5,49 127.5,50C 126.167,50.6667 126.167,51.3333 127.5,52C 126.5,53 125.5,54 124.5,55C 125.5,56 126.5,57 127.5,58C 126.167,58.6667 126.167,59.3333 127.5,60C 126.5,61 125.5,62 124.5,63C 125.5,64 126.5,65 127.5,66C 126.167,66.6667 126.167,67.3333 127.5,68C 126.5,69 125.5,70 124.5,71C 125.5,72 126.5,73 127.5,74C 126.167,74.6667 126.167,75.3333 127.5,76C 126.5,77 125.5,78 124.5,79C 125.5,80 126.5,81 127.5,82C 126.167,82.6667 126.167,83.3333 127.5,84C 126.5,85 125.5,86 124.5,87C 125.5,88 126.5,89 127.5,90C 126.167,90.6667 126.167,91.3333 127.5,92C 126.5,93 125.5,94 124.5,95C 125.5,96 126.5,97 127.5,98C 126.167,98.6667 126.167,99.3333 127.5,100C 126.5,101 125.5,102 124.5,103C 125.5,104 126.5,105 127.5,106C 126.167,106.667 126.167,107.333 127.5,108C 126.5,109 125.5,110 124.5,111C 125.5,112 126.5,113 127.5,114C 126.167,114.667 126.167,115.333 127.5,116C 126.5,117 125.5,118 124.5,119C 125.5,120 126.5,121 127.5,122C 126.167,122.667 126.167,123.333 127.5,124C 126.5,125 125.5,126 124.5,127C 125.5,128 126.5,129 127.5,130C 126.167,130.667 126.167,131.333 127.5,132C 126.5,133 125.5,134 124.5,135C 125.5,136 126.5,137 127.5,138C 126.167,138.667 126.167,139.333 127.5,140C 126.5,141 125.5,142 124.5,143C 125.5,144 126.5,145 127.5,146C 126.167,146.667 126.167,147.333 127.5,148C 126.5,149 125.5,150 124.5,151C 125.5,152 126.5,153 127.5,154C 126.167,154.667 126.167,155.333 127.5,156C 126.5,157 125.5,158 124.5,159C 125.5,160 126.5,161 127.5,162C 126.167,162.667 126.167,163.333 127.5,164C 126.5,165 125.5,166 124.5,167C 125.5,168 126.5,169 127.5,170C 126.167,170.667 126.167,171.333 127.5,172C 126.5,173 125.5,174 124.5,175C 125.5,176 126.5,177 127.5,178C 126.167,178.667 126.167,179.333 127.5,180C 126.5,181 125.5,182 124.5,183C 125.5,184 126.5,185 127.5,186C 126.167,186.667 126.167,187.333 127.5,188C 126.5,189 125.5,190 124.5,191C 125.5,192 126.5,193 127.5,194C 126.167,194.667 126.167,195.333 127.5,196C 126.5,197 125.5,198 124.5,199C 125.5,200 126.5,201 127.5,202C 126.167,202.667 126.167,203.333 127.5,204C 126.5,205 125.5,206 124.5,207C 125.5,208 126.5,209 127.5,210C 126.167,210.667 126.167,211.333 127.5,212C 126.5,213 125.5,214 124.5,215C 125.5,216 126.5,217 127.5,218C 126.167,218.667 126.167,219.333 127.5,220C 126.5,221 125.5,222 124.5,223C 125.5,224 126.5,225 127.5,226C 126.167,226.667 126.167,227.333 127.5,228C 126.5,229 125.5,230 124.5,231C 125.5,232 126.5,233 127.5,234C 126.167,234.667 126.167,235.333 127.5,236C 126.5,237 125.5,238 124.5,239C 125.5,240 126.5,241 127.5,242C 126.167,242.667 126.167,243.333 127.5,244C 126.5,245 125.5,246 124.5,247C 125.5,248 126.5,249 127.5,250C 126.167,250.667 126.167,251.333 127.5,252C 124.986,252.881 122.986,254.381 121.5,256.5C 112.167,256.5 102.833,256.5 93.5,256.5C 93.1872,260.042 93.5206,263.375 94.5,266.5C 98.0353,267.583 100.035,269.916 100.5,273.5C 98.5012,285.823 96.5012,298.157 94.5,310.5C 92.9466,311.439 91.6133,312.606 90.5,314C 91.3223,316.434 91.6556,318.934 91.5,321.5C 95.5,321.5 99.5,321.5 103.5,321.5C 102.402,322.397 102.402,323.23 103.5,324C 102.5,325 101.5,326 100.5,327C 101.5,328 102.5,329 103.5,330C 102.167,330.667 102.167,331.333 103.5,332C 102.5,333 101.5,334 100.5,335C 101.5,336 102.5,337 103.5,338C 102.167,338.667 102.167,339.333 103.5,340C 102.5,341 101.5,342 100.5,343C 101.5,344 102.5,345 103.5,346C 102.167,346.667 102.167,347.333 103.5,348C 102.5,349 101.5,350 100.5,351C 101.5,352 102.5,353 103.5,354C 102.167,354.667 102.167,355.333 103.5,356C 102.5,357 101.5,358 100.5,359C 101.5,360 102.5,361 103.5,362C 102.167,362.667 102.167,363.333 103.5,364C 102.5,365 101.5,366 100.5,367C 101.5,368 102.5,369 103.5,370C 102.167,370.667 102.167,371.333 103.5,372C 102.5,373 101.5,374 100.5,375C 101.5,376 102.5,377 103.5,378C 102.167,378.667 102.167,379.333 103.5,380C 102.5,381 101.5,382 100.5,383C 101.5,384 102.5,385 103.5,386C 102.167,386.667 102.167,387.333 103.5,388C 102.5,389 101.5,390 100.5,391C 101.5,392 102.5,393 103.5,394C 102.167,394.667 102.167,395.333 103.5,396C 102.5,397 101.5,398 100.5,399C 101.5,400 102.5,401 103.5,402C 102.167,402.667 102.167,403.333 103.5,404C 102.5,405 101.5,406 100.5,407C 101.5,408 102.5,409 103.5,410C 102.167,410.667 102.167,411.333 103.5,412C 102.5,413 101.5,414 100.5,415C 101.5,416 102.5,417 103.5,418C 102.167,418.667 102.167,419.333 103.5,420C 102.5,421 101.5,422 100.5,423C 101.5,424 102.5,425 103.5,426C 102.167,426.667 102.167,427.333 103.5,428C 102.5,429 101.5,430 100.5,431C 101.5,432 102.5,433 103.5,434C 102.167,434.667 102.167,435.333 103.5,436C 102.5,437 101.5,438 100.5,439C 101.5,440 102.5,441 103.5,442C 102.167,442.667 102.167,443.333 103.5,444C 102.5,445 101.5,446 100.5,447C 101.5,448 102.5,449 103.5,450C 102.167,450.667 102.167,451.333 103.5,452C 102.5,453 101.5,454 100.5,455C 101.5,456 102.5,457 103.5,458C 102.167,458.667 102.167,459.333 103.5,460C 102.5,461 101.5,462 100.5,463C 101.5,464 102.5,465 103.5,466C 102.167,466.667 102.167,467.333 103.5,468C 102.5,469 101.5,470 100.5,471C 101.5,472 102.5,473 103.5,474C 102.167,474.667 102.167,475.333 103.5,476C 102.5,477 101.5,478 100.5,479C 101.5,480 102.5,481 103.5,482C 102.167,482.667 102.167,483.333 103.5,484C 102.5,485 101.5,486 100.5,487C 101.5,488 102.5,489 103.5,490C 102.167,490.667 102.167,491.333 103.5,492C 102.5,493 101.5,494 100.5,495C 102.65,496.192 103.317,497.692 102.5,499.5C 94.8333,499.5 87.1667,499.5 79.5,499.5C 80.4039,332.715 80.4039,166.048 79.5,-0.5 Z"/></g>
<g><path style="opacity:1" fill="#40f49a" d="M 127.5,-0.5 C 143.5,-0.5 159.5,-0.5 175.5,-0.5C 174.71,0.794229 173.71,1.9609 172.5,3C 175.167,4.33333 175.167,5.66667 172.5,7C 175.167,8.33333 175.167,9.66667 172.5,11C 175.167,12.3333 175.167,13.6667 172.5,15C 175.167,16.3333 175.167,17.6667 172.5,19C 175.167,20.3333 175.167,21.6667 172.5,23C 175.167,24.3333 175.167,25.6667 172.5,27C 175.167,28.3333 175.167,29.6667 172.5,31C 175.167,32.3333 175.167,33.6667 172.5,35C 175.167,36.3333 175.167,37.6667 172.5,39C 175.167,40.3333 175.167,41.6667 172.5,43C 175.167,44.3333 175.167,45.6667 172.5,47C 175.167,48.3333 175.167,49.6667 172.5,51C 175.167,52.3333 175.167,53.6667 172.5,55C 175.167,56.3333 175.167,57.6667 172.5,59C 175.167,60.3333 175.167,61.6667 172.5,63C 175.167,64.3333 175.167,65.6667 172.5,67C 175.167,68.3333 175.167,69.6667 172.5,71C 175.167,72.3333 175.167,73.6667 172.5,75C 175.167,76.3333 175.167,77.6667 172.5,79C 175.167,80.3333 175.167,81.6667 172.5,83C 175.167,84.3333 175.167,85.6667 172.5,87C 175.167,88.3333 175.167,89.6667 172.5,91C 175.167,92.3333 175.167,93.6667 172.5,95C 175.167,96.3333 175.167,97.6667 172.5,99C 175.167,100.333 175.167,101.667 172.5,103C 175.167,104.333 175.167,105.667 172.5,107C 175.167,108.333 175.167,109.667 172.5,111C 175.167,112.333 175.167,113.667 172.5,115C 175.167,116.333 175.167,117.667 172.5,119C 175.167,120.333 175.167,121.667 172.5,123C 175.167,124.333 175.167,125.667 172.5,127C 175.167,128.333 175.167,129.667 172.5,131C 175.167,132.333 175.167,133.667 172.5,135C 175.167,136.333 175.167,137.667 172.5,139C 175.167,140.333 175.167,141.667 172.5,143C 175.167,144.333 175.167,145.667 172.5,147C 175.167,148.333 175.167,149.667 172.5,151C 175.167,152.333 175.167,153.667 172.5,155C 175.167,156.333 175.167,157.667 172.5,159C 175.167,160.333 175.167,161.667 172.5,163C 175.167,164.333 175.167,165.667 172.5,167C 175.167,168.333 175.167,169.667 172.5,171C 175.167,172.333 175.167,173.667 172.5,175C 175.167,176.333 175.167,177.667 172.5,179C 175.167,180.333 175.167,181.667 172.5,183C 175.167,184.333 175.167,185.667 172.5,187C 175.167,188.333 175.167,189.667 172.5,191C 175.167,192.333 175.167,193.667 172.5,195C 175.167,196.333 175.167,197.667 172.5,199C 175.167,200.333 175.167,201.667 172.5,203C 175.167,204.333 175.167,205.667 172.5,207C 175.167,208.333 175.167,209.667 172.5,211C 175.167,212.333 175.167,213.667 172.5,215C 175.167,216.333 175.167,217.667 172.5,219C 175.167,220.333 175.167,221.667 172.5,223C 175.167,224.333 175.167,225.667 172.5,227C 175.167,228.333 175.167,229.667 172.5,231C 175.167,232.333 175.167,233.667 172.5,235C 175.167,236.333 175.167,237.667 172.5,239C 175.167,240.333 175.167,241.667 172.5,243C 175.167,244.333 175.167,245.667 172.5,247C 175.167,248.333 175.167,249.667 172.5,251C 175.167,252.333 175.167,253.667 172.5,255C 173.056,255.383 173.389,255.883 173.5,256.5C 164.766,255.865 156.433,256.532 148.5,258.5C 144.382,272.19 140.049,285.856 135.5,299.5C 130.818,285.408 126.151,271.408 121.5,257.5C 121.5,257.167 121.5,256.833 121.5,256.5C 122.986,254.381 124.986,252.881 127.5,252C 126.167,251.333 126.167,250.667 127.5,250C 126.5,249 125.5,248 124.5,247C 125.5,246 126.5,245 127.5,244C 126.167,243.333 126.167,242.667 127.5,242C 126.5,241 125.5,240 124.5,239C 125.5,238 126.5,237 127.5,236C 126.167,235.333 126.167,234.667 127.5,234C 126.5,233 125.5,232 124.5,231C 125.5,230 126.5,229 127.5,228C 126.167,227.333 126.167,226.667 127.5,226C 126.5,225 125.5,224 124.5,223C 125.5,222 126.5,221 127.5,220C 126.167,219.333 126.167,218.667 127.5,218C 126.5,217 125.5,216 124.5,215C 125.5,214 126.5,213 127.5,212C 126.167,211.333 126.167,210.667 127.5,210C 126.5,209 125.5,208 124.5,207C 125.5,206 126.5,205 127.5,204C 126.167,203.333 126.167,202.667 127.5,202C 126.5,201 125.5,200 124.5,199C 125.5,198 126.5,197 127.5,196C 126.167,195.333 126.167,194.667 127.5,194C 126.5,193 125.5,192 124.5,191C 125.5,190 126.5,189 127.5,188C 126.167,187.333 126.167,186.667 127.5,186C 126.5,185 125.5,184 124.5,183C 125.5,182 126.5,181 127.5,180C 126.167,179.333 126.167,178.667 127.5,178C 126.5,177 125.5,176 124.5,175C 125.5,174 126.5,173 127.5,172C 126.167,171.333 126.167,170.667 127.5,170C 126.5,169 125.5,168 124.5,167C 125.5,166 126.5,165 127.5,164C 126.167,163.333 126.167,162.667 127.5,162C 126.5,161 125.5,160 124.5,159C 125.5,158 126.5,157 127.5,156C 126.167,155.333 126.167,154.667 127.5,154C 126.5,153 125.5,152 124.5,151C 125.5,150 126.5,149 127.5,148C 126.167,147.333 126.167,146.667 127.5,146C 126.5,145 125.5,144 124.5,143C 125.5,142 126.5,141 127.5,140C 126.167,139.333 126.167,138.667 127.5,138C 126.5,137 125.5,136 124.5,135C 125.5,134 126.5,133 127.5,132C 126.167,131.333 126.167,130.667 127.5,130C 126.5,129 125.5,128 124.5,127C 125.5,126 126.5,125 127.5,124C 126.167,123.333 126.167,122.667 127.5,122C 126.5,121 125.5,120 124.5,119C 125.5,118 126.5,117 127.5,116C 126.167,115.333 126.167,114.667 127.5,114C 126.5,113 125.5,112 124.5,111C 125.5,110 126.5,109 127.5,108C 126.167,107.333 126.167,106.667 127.5,106C 126.5,105 125.5,104 124.5,103C 125.5,102 126.5,101 127.5,100C 126.167,99.3333 126.167,98.6667 127.5,98C 126.5,97 125.5,96 124.5,95C 125.5,94 126.5,93 127.5,92C 126.167,91.3333 126.167,90.6667 127.5,90C 126.5,89 125.5,88 124.5,87C 125.5,86 126.5,85 127.5,84C 126.167,83.3333 126.167,82.6667 127.5,82C 126.5,81 125.5,80 124.5,79C 125.5,78 126.5,77 127.5,76C 126.167,75.3333 126.167,74.6667 127.5,74C 126.5,73 125.5,72 124.5,71C 125.5,70 126.5,69 127.5,68C 126.167,67.3333 126.167,66.6667 127.5,66C 126.5,65 125.5,64 124.5,63C 125.5,62 126.5,61 127.5,60C 126.167,59.3333 126.167,58.6667 127.5,58C 126.5,57 125.5,56 124.5,55C 125.5,54 126.5,53 127.5,52C 126.167,51.3333 126.167,50.6667 127.5,50C 126.5,49 125.5,48 124.5,47C 125.5,46 126.5,45 127.5,44C 126.167,43.3333 126.167,42.6667 127.5,42C 126.5,41 125.5,40 124.5,39C 125.5,38 126.5,37 127.5,36C 126.167,35.3333 126.167,34.6667 127.5,34C 126.5,33 125.5,32 124.5,31C 125.5,30 126.5,29 127.5,28C 126.167,27.3333 126.167,26.6667 127.5,26C 126.5,25 125.5,24 124.5,23C 125.5,22 126.5,21 127.5,20C 126.167,19.3333 126.167,18.6667 127.5,18C 126.5,17 125.5,16 124.5,15C 125.5,14 126.5,13 127.5,12C 126.167,11.3333 126.167,10.6667 127.5,10C 126.5,9 125.5,8 124.5,7C 125.5,6 126.5,5 127.5,4C 127.264,2.54912 127.264,1.04912 127.5,-0.5 Z"/></g>
<g><path style="opacity:1" fill="#3bef95" d="M 175.5,-0.5 C 203.5,-0.5 231.5,-0.5 259.5,-0.5C 258.71,0.794229 257.71,1.9609 256.5,3C 257.5,4 258.5,5 259.5,6C 258.167,6.66667 258.167,7.33333 259.5,8C 258.5,9 257.5,10 256.5,11C 257.5,12 258.5,13 259.5,14C 258.167,14.6667 258.167,15.3333 259.5,16C 258.5,17 257.5,18 256.5,19C 257.5,20 258.5,21 259.5,22C 258.167,22.6667 258.167,23.3333 259.5,24C 258.5,25 257.5,26 256.5,27C 257.5,28 258.5,29 259.5,30C 258.167,30.6667 258.167,31.3333 259.5,32C 258.5,33 257.5,34 256.5,35C 257.5,36 258.5,37 259.5,38C 258.167,38.6667 258.167,39.3333 259.5,40C 258.5,41 257.5,42 256.5,43C 257.5,44 258.5,45 259.5,46C 258.167,46.6667 258.167,47.3333 259.5,48C 258.5,49 257.5,50 256.5,51C 257.5,52 258.5,53 259.5,54C 258.167,54.6667 258.167,55.3333 259.5,56C 258.5,57 257.5,58 256.5,59C 257.5,60 258.5,61 259.5,62C 258.167,62.6667 258.167,63.3333 259.5,64C 258.5,65 257.5,66 256.5,67C 257.5,68 258.5,69 259.5,70C 258.167,70.6667 258.167,71.3333 259.5,72C 258.5,73 257.5,74 256.5,75C 257.5,76 258.5,77 259.5,78C 258.167,78.6667 258.167,79.3333 259.5,80C 258.5,81 257.5,82 256.5,83C 257.5,84 258.5,85 259.5,86C 258.167,86.6667 258.167,87.3333 259.5,88C 258.5,89 257.5,90 256.5,91C 257.5,92 258.5,93 259.5,94C 258.167,94.6667 258.167,95.3333 259.5,96C 258.5,97 257.5,98 256.5,99C 257.5,100 258.5,101 259.5,102C 258.167,102.667 258.167,103.333 259.5,104C 258.5,105 257.5,106 256.5,107C 257.381,107.708 258.047,108.542 258.5,109.5C 252.188,111.754 246.688,115.421 242,120.5C 236.69,96.4894 222.19,87.3227 198.5,93C 190.088,98.4212 184.255,105.921 181,115.5C 180.333,143.167 180.333,170.833 181,198.5C 181.934,202.637 183.268,206.637 185,210.5C 191.871,220.716 201.038,227.882 212.5,232C 222.14,233.172 231.14,231.339 239.5,226.5C 245.167,226.5 250.833,226.5 256.5,226.5C 257.29,227.794 258.29,228.961 259.5,230C 258.167,230.667 258.167,231.333 259.5,232C 258.5,233 257.5,234 256.5,235C 257.5,236 258.5,237 259.5,238C 258.167,238.667 258.167,239.333 259.5,240C 258.5,241 257.5,242 256.5,243C 257.5,244 258.5,245 259.5,246C 258.167,246.667 258.167,247.333 259.5,248C 258.5,249 257.5,250 256.5,251C 257.5,252 258.5,253 259.5,254C 258.167,254.667 258.167,255.333 259.5,256C 258.5,257 257.5,258 256.5,259C 257.5,260 258.5,261 259.5,262C 258.167,262.667 258.167,263.333 259.5,264C 258.5,265 257.5,266 256.5,267C 257.5,268 258.5,269 259.5,270C 256.964,270.186 254.631,270.686 252.5,271.5C 248.102,271.795 243.769,272.462 239.5,273.5C 238.167,276.167 238.167,278.833 239.5,281.5C 241.258,282.128 242.758,283.128 244,284.5C 244.667,293.167 244.667,301.833 244,310.5C 242.301,311.406 240.467,311.739 238.5,311.5C 238.5,314.833 238.5,318.167 238.5,321.5C 244.833,321.5 251.167,321.5 257.5,321.5C 256.683,323.308 257.35,324.808 259.5,326C 258.167,326.667 258.167,327.333 259.5,328C 258.5,329 257.5,330 256.5,331C 257.5,332 258.5,333 259.5,334C 258.167,334.667 258.167,335.333 259.5,336C 257.063,337.279 256.563,338.779 258,340.5C 258.333,340.167 258.667,339.833 259,339.5C 259.494,341.134 259.66,342.801 259.5,344.5C 256.833,345.167 256.833,345.833 259.5,346.5C 259.381,351.212 259.381,355.712 259.5,360C 258.5,361 257.5,362 256.5,363C 257.5,364 258.5,365 259.5,366C 258.167,366.667 258.167,367.333 259.5,368C 258.5,369 257.5,370 256.5,371C 257.5,372 258.5,373 259.5,374C 258.167,374.667 258.167,375.333 259.5,376C 258.5,377 257.5,378 256.5,379C 257.5,380 258.5,381 259.5,382C 258.167,382.667 258.167,383.333 259.5,384C 258.5,385 257.5,386 256.5,387C 257.5,388 258.5,389 259.5,390C 258.167,390.667 258.167,391.333 259.5,392C 258.5,393 257.5,394 256.5,395C 257.5,396 258.5,397 259.5,398C 258.167,398.667 258.167,399.333 259.5,400C 258.5,401 257.5,402 256.5,403C 257.5,404 258.5,405 259.5,406C 258.167,406.667 258.167,407.333 259.5,408C 258.5,409 257.5,410 256.5,411C 257.5,412 258.5,413 259.5,414C 258.167,414.667 258.167,415.333 259.5,416C 258.5,417 257.5,418 256.5,419C 257.5,420 258.5,421 259.5,422C 258.167,422.667 258.167,423.333 259.5,424C 258.5,425 257.5,426 256.5,427C 257.5,428 258.5,429 259.5,430C 258.167,430.667 258.167,431.333 259.5,432C 258.5,433 257.5,434 256.5,435C 257.5,436 258.5,437 259.5,438C 258.167,438.667 258.167,439.333 259.5,440C 258.5,441 257.5,442 256.5,443C 257.5,444 258.5,445 259.5,446C 258.167,446.667 258.167,447.333 259.5,448C 258.5,449 257.5,450 256.5,451C 257.5,452 258.5,453 259.5,454C 258.167,454.667 258.167,455.333 259.5,456C 258.5,457 257.5,458 256.5,459C 257.5,460 258.5,461 259.5,462C 258.167,462.667 258.167,463.333 259.5,464C 258.5,465 257.5,466 256.5,467C 257.5,468 258.5,469 259.5,470C 258.167,470.667 258.167,471.333 259.5,472C 258.5,473 257.5,474 256.5,475C 257.5,476 258.5,477 259.5,478C 258.167,478.667 258.167,479.333 259.5,480C 258.5,481 257.5,482 256.5,483C 257.5,484 258.5,485 259.5,486C 258.167,486.667 258.167,487.333 259.5,488C 258.5,489 257.5,490 256.5,491C 257.5,492 258.5,493 259.5,494C 258.167,494.667 258.167,495.333 259.5,496C 258.29,497.039 257.29,498.206 256.5,499.5C 228.5,499.5 200.5,499.5 172.5,499.5C 174.931,497.932 174.931,496.432 172.5,495C 175.167,493.667 175.167,492.333 172.5,491C 175.167,489.667 175.167,488.333 172.5,487C 175.167,485.667 175.167,484.333 172.5,483C 175.167,481.667 175.167,480.333 172.5,479C 175.167,477.667 175.167,476.333 172.5,475C 175.167,473.667 175.167,472.333 172.5,471C 175.167,469.667 175.167,468.333 172.5,467C 175.167,465.667 175.167,464.333 172.5,463C 175.167,461.667 175.167,460.333 172.5,459C 175.167,457.667 175.167,456.333 172.5,455C 175.167,453.667 175.167,452.333 172.5,451C 175.167,449.667 175.167,448.333 172.5,447C 175.167,445.667 175.167,444.333 172.5,443C 175.167,441.667 175.167,440.333 172.5,439C 175.167,437.667 175.167,436.333 172.5,435C 175.167,433.667 175.167,432.333 172.5,431C 175.167,429.667 175.167,428.333 172.5,427C 175.167,425.667 175.167,424.333 172.5,423C 175.167,421.667 175.167,420.333 172.5,419C 175.167,417.667 175.167,416.333 172.5,415C 175.167,413.667 175.167,412.333 172.5,411C 175.167,409.667 175.167,408.333 172.5,407C 175.167,405.667 175.167,404.333 172.5,403C 175.167,401.667 175.167,400.333 172.5,399C 175.167,397.667 175.167,396.333 172.5,395C 175.167,393.667 175.167,392.333 172.5,391C 175.167,389.667 175.167,388.333 172.5,387C 175.167,385.667 175.167,384.333 172.5,383C 175.167,381.667 175.167,380.333 172.5,379C 174.948,376.7 174.281,375.367 170.5,375C 170.833,374.667 171.167,374.333 171.5,374C 169.427,373.882 168.093,372.882 167.5,371C 168.833,367 168.833,363 167.5,359C 167.948,355.933 169.281,353.433 171.5,351.5C 174.179,351.673 176.513,352.673 178.5,354.5C 175.947,357.135 173.281,357.135 170.5,354.5C 169.406,355.868 169.74,357.035 171.5,358C 173.5,358.667 175.5,358.667 177.5,358C 180.473,356.776 181.14,354.776 179.5,352C 177.285,350.956 174.952,350.29 172.5,350C 171.663,348.989 171.33,347.822 171.5,346.5C 174.144,346.16 176.477,346.827 178.5,348.5C 179.594,347.132 179.26,345.965 177.5,345C 170.618,342.751 168.284,344.918 170.5,351.5C 168.912,350.359 167.579,348.859 166.5,347C 169.167,345.667 169.167,344.333 166.5,343C 169.167,341.667 169.167,340.333 166.5,339C 167.469,337.242 168.636,336.742 170,337.5C 171.067,336.809 172.234,336.309 173.5,336C 174.598,331.216 174.598,326.383 173.5,321.5C 175.5,321.5 177.5,321.5 179.5,321.5C 180.397,316.563 178.897,312.563 175,309.5C 172.4,295.595 170.566,281.595 169.5,267.5C 171.167,267.5 172.833,267.5 174.5,267.5C 175.161,265.866 175.494,264.033 175.5,262C 175.453,259.705 174.787,257.871 173.5,256.5C 173.389,255.883 173.056,255.383 172.5,255C 175.167,253.667 175.167,252.333 172.5,251C 175.167,249.667 175.167,248.333 172.5,247C 175.167,245.667 175.167,244.333 172.5,243C 175.167,241.667 175.167,240.333 172.5,239C 175.167,237.667 175.167,236.333 172.5,235C 175.167,233.667 175.167,232.333 172.5,231C 175.167,229.667 175.167,228.333 172.5,227C 175.167,225.667 175.167,224.333 172.5,223C 175.167,221.667 175.167,220.333 172.5,219C 175.167,217.667 175.167,216.333 172.5,215C 175.167,213.667 175.167,212.333 172.5,211C 175.167,209.667 175.167,208.333 172.5,207C 175.167,205.667 175.167,204.333 172.5,203C 175.167,201.667 175.167,200.333 172.5,199C 175.167,197.667 175.167,196.333 172.5,195C 175.167,193.667 175.167,192.333 172.5,191C 175.167,189.667 175.167,188.333 172.5,187C 175.167,185.667 175.167,184.333 172.5,183C 175.167,181.667 175.167,180.333 172.5,179C 175.167,177.667 175.167,176.333 172.5,175C 175.167,173.667 175.167,172.333 172.5,171C 175.167,169.667 175.167,168.333 172.5,167C 175.167,165.667 175.167,164.333 172.5,163C 175.167,161.667 175.167,160.333 172.5,159C 175.167,157.667 175.167,156.333 172.5,155C 175.167,153.667 175.167,152.333 172.5,151C 175.167,149.667 175.167,148.333 172.5,147C 175.167,145.667 175.167,144.333 172.5,143C 175.167,141.667 175.167,140.333 172.5,139C 175.167,137.667 175.167,136.333 172.5,135C 175.167,133.667 175.167,132.333 172.5,131C 175.167,129.667 175.167,128.333 172.5,127C 175.167,125.667 175.167,124.333 172.5,123C 175.167,121.667 175.167,120.333 172.5,119C 175.167,117.667 175.167,116.333 172.5,115C 175.167,113.667 175.167,112.333 172.5,111C 175.167,109.667 175.167,108.333 172.5,107C 175.167,105.667 175.167,104.333 172.5,103C 175.167,101.667 175.167,100.333 172.5,99C 175.167,97.6667 175.167,96.3333 172.5,95C 175.167,93.6667 175.167,92.3333 172.5,91C 175.167,89.6667 175.167,88.3333 172.5,87C 175.167,85.6667 175.167,84.3333 172.5,83C 175.167,81.6667 175.167,80.3333 172.5,79C 175.167,77.6667 175.167,76.3333 172.5,75C 175.167,73.6667 175.167,72.3333 172.5,71C 175.167,69.6667 175.167,68.3333 172.5,67C 175.167,65.6667 175.167,64.3333 172.5,63C 175.167,61.6667 175.167,60.3333 172.5,59C 175.167,57.6667 175.167,56.3333 172.5,55C 175.167,53.6667 175.167,52.3333 172.5,51C 175.167,49.6667 175.167,48.3333 172.5,47C 175.167,45.6667 175.167,44.3333 172.5,43C 175.167,41.6667 175.167,40.3333 172.5,39C 175.167,37.6667 175.167,36.3333 172.5,35C 175.167,33.6667 175.167,32.3333 172.5,31C 175.167,29.6667 175.167,28.3333 172.5,27C 175.167,25.6667 175.167,24.3333 172.5,23C 175.167,21.6667 175.167,20.3333 172.5,19C 175.167,17.6667 175.167,16.3333 172.5,15C 175.167,13.6667 175.167,12.3333 172.5,11C 175.167,9.66667 175.167,8.33333 172.5,7C 175.167,5.66667 175.167,4.33333 172.5,3C 173.71,1.9609 174.71,0.794229 175.5,-0.5 Z"/></g>
<g><path style="opacity:1" fill="#2de589" d="M 347.5,-0.5 C 364.833,-0.5 382.167,-0.5 399.5,-0.5C 399.407,1.40457 399.074,3.23791 398.5,5C 401.167,6.33333 401.167,7.66667 398.5,9C 398.5,10.3333 398.5,11.6667 398.5,13C 401.167,14.3333 401.167,15.6667 398.5,17C 398.5,18.3333 398.5,19.6667 398.5,21C 401.167,22.3333 401.167,23.6667 398.5,25C 398.5,26.3333 398.5,27.6667 398.5,29C 401.167,30.3333 401.167,31.6667 398.5,33C 398.5,34.3333 398.5,35.6667 398.5,37C 401.167,38.3333 401.167,39.6667 398.5,41C 398.5,42.3333 398.5,43.6667 398.5,45C 401.167,46.3333 401.167,47.6667 398.5,49C 398.5,50.3333 398.5,51.6667 398.5,53C 401.167,54.3333 401.167,55.6667 398.5,57C 398.5,58.3333 398.5,59.6667 398.5,61C 401.167,62.3333 401.167,63.6667 398.5,65C 398.5,66.3333 398.5,67.6667 398.5,69C 401.167,70.3333 401.167,71.6667 398.5,73C 398.5,74.3333 398.5,75.6667 398.5,77C 401.167,78.3333 401.167,79.6667 398.5,81C 398.5,82.3333 398.5,83.6667 398.5,85C 401.167,86.3333 401.167,87.6667 398.5,89C 398.5,90.3333 398.5,91.6667 398.5,93C 401.167,94.3333 401.167,95.6667 398.5,97C 398.5,98.3333 398.5,99.6667 398.5,101C 401.167,102.333 401.167,103.667 398.5,105C 398.5,106.333 398.5,107.667 398.5,109C 401.167,110.333 401.167,111.667 398.5,113C 398.5,114.333 398.5,115.667 398.5,117C 401.167,118.333 401.167,119.667 398.5,121C 398.5,122.333 398.5,123.667 398.5,125C 401.167,126.333 401.167,127.667 398.5,129C 398.5,130.333 398.5,131.667 398.5,133C 401.167,134.333 401.167,135.667 398.5,137C 398.5,138.333 398.5,139.667 398.5,141C 401.167,142.333 401.167,143.667 398.5,145C 398.5,146.333 398.5,147.667 398.5,149C 401.167,150.333 401.167,151.667 398.5,153C 398.5,154.333 398.5,155.667 398.5,157C 401.167,158.333 401.167,159.667 398.5,161C 398.5,162.333 398.5,163.667 398.5,165C 401.167,166.333 401.167,167.667 398.5,169C 398.5,170.333 398.5,171.667 398.5,173C 401.167,174.333 401.167,175.667 398.5,177C 398.5,178.333 398.5,179.667 398.5,181C 401.167,182.333 401.167,183.667 398.5,185C 398.5,186.333 398.5,187.667 398.5,189C 401.167,190.333 401.167,191.667 398.5,193C 398.5,194.333 398.5,195.667 398.5,197C 401.167,198.333 401.167,199.667 398.5,201C 398.5,202.333 398.5,203.667 398.5,205C 401.167,206.333 401.167,207.667 398.5,209C 398.5,210.333 398.5,211.667 398.5,213C 401.167,214.333 401.167,215.667 398.5,217C 398.5,218.333 398.5,219.667 398.5,221C 401.167,222.333 401.167,223.667 398.5,225C 398.5,226.333 398.5,227.667 398.5,229C 401.167,230.333 401.167,231.667 398.5,233C 398.5,234.333 398.5,235.667 398.5,237C 401.167,238.333 401.167,239.667 398.5,241C 398.5,242.333 398.5,243.667 398.5,245C 401.167,246.333 401.167,247.667 398.5,249C 398.5,250.333 398.5,251.667 398.5,253C 401.167,254.333 401.167,255.667 398.5,257C 398.5,258.333 398.5,259.667 398.5,261C 401.167,262.333 401.167,263.667 398.5,265C 398.833,266.667 399.167,268.333 399.5,270C 397.618,270.198 395.952,270.698 394.5,271.5C 389.853,272.239 385.186,272.906 380.5,273.5C 379.517,278.355 381.183,281.688 385.5,283.5C 386.498,291.807 386.831,300.14 386.5,308.5C 383.864,308.964 381.197,309.297 378.5,309.5C 375.989,309.712 373.822,309.045 372,307.5C 371.813,295.787 371.313,284.121 370.5,272.5C 368.333,272.167 366.167,271.833 364,271.5C 359.11,271.855 354.276,272.522 349.5,273.5C 349.187,276.247 349.52,278.914 350.5,281.5C 352.258,282.128 353.758,283.128 355,284.5C 355.141,294.216 355.807,303.883 357,313.5C 358.979,318.989 362.812,321.989 368.5,322.5C 372.588,324.406 375.254,327.24 376.5,331C 373.833,332.333 373.833,333.667 376.5,335C 373.833,336.333 373.833,337.667 376.5,339C 375.377,340.044 374.044,340.71 372.5,341C 375.167,342.333 375.167,343.667 372.5,345C 373.373,346.045 374.373,346.878 375.5,347.5C 377.106,350.986 378.106,354.653 378.5,358.5C 379.5,358.5 380.5,358.5 381.5,358.5C 382.16,354.687 383.326,351.021 385,347.5C 386.02,351.402 387.52,355.068 389.5,358.5C 391.556,354.667 393.222,350.667 394.5,346.5C 395.268,345.737 395.768,344.737 396,343.5C 398.861,343.908 399.028,343.075 396.5,341C 398.35,338.967 399.016,338.967 398.5,341C 401.167,342.333 401.167,343.667 398.5,345C 398.5,346.333 398.5,347.667 398.5,349C 401.167,350.333 401.167,351.667 398.5,353C 398.5,354.333 398.5,355.667 398.5,357C 401.167,358.333 401.167,359.667 398.5,361C 398.5,362.333 398.5,363.667 398.5,365C 401.167,366.333 401.167,367.667 398.5,369C 398.5,370.333 398.5,371.667 398.5,373C 401.167,374.333 401.167,375.667 398.5,377C 398.5,378.333 398.5,379.667 398.5,381C 401.167,382.333 401.167,383.667 398.5,385C 398.5,386.333 398.5,387.667 398.5,389C 401.167,390.333 401.167,391.667 398.5,393C 398.5,394.333 398.5,395.667 398.5,397C 401.167,398.333 401.167,399.667 398.5,401C 398.5,402.333 398.5,403.667 398.5,405C 401.167,406.333 401.167,407.667 398.5,409C 398.5,410.333 398.5,411.667 398.5,413C 401.167,414.333 401.167,415.667 398.5,417C 398.5,418.333 398.5,419.667 398.5,421C 401.167,422.333 401.167,423.667 398.5,425C 398.5,426.333 398.5,427.667 398.5,429C 401.167,430.333 401.167,431.667 398.5,433C 398.5,434.333 398.5,435.667 398.5,437C 401.167,438.333 401.167,439.667 398.5,441C 398.5,442.333 398.5,443.667 398.5,445C 401.167,446.333 401.167,447.667 398.5,449C 398.5,450.333 398.5,451.667 398.5,453C 401.167,454.333 401.167,455.667 398.5,457C 398.5,458.333 398.5,459.667 398.5,461C 401.167,462.333 401.167,463.667 398.5,465C 398.5,466.333 398.5,467.667 398.5,469C 401.167,470.333 401.167,471.667 398.5,473C 398.5,474.333 398.5,475.667 398.5,477C 401.167,478.333 401.167,479.667 398.5,481C 398.5,482.333 398.5,483.667 398.5,485C 401.167,486.333 401.167,487.667 398.5,489C 398.5,490.333 398.5,491.667 398.5,493C 401.167,494.333 401.167,495.667 398.5,497C 399.598,497.77 399.598,498.603 398.5,499.5C 381.167,499.5 363.833,499.5 346.5,499.5C 347.069,458.285 347.402,417.119 347.5,376C 346.167,374.667 344.833,373.333 343.5,372C 346.167,371.333 346.167,370.667 343.5,370C 346.167,368 346.167,366 343.5,364C 346.167,363.333 346.167,362.667 343.5,362C 343.559,359.375 343.892,356.875 344.5,354.5C 345.559,356.555 347.225,357.889 349.5,358.5C 350.49,352.355 350.823,346.022 350.5,339.5C 349.5,339.5 348.5,339.5 347.5,339.5C 347.5,344.5 347.5,349.5 347.5,354.5C 345.674,352.853 344.34,350.853 343.5,348.5C 346.113,347.905 346.113,347.071 343.5,346C 344.424,345.15 344.424,344.15 343.5,343C 343.905,342.055 344.572,341.388 345.5,341C 342.833,340.333 342.833,339.667 345.5,339C 344.833,338.667 344.167,338.333 343.5,338C 344.424,337.15 344.424,336.15 343.5,335C 344.424,333.189 345.257,333.355 346,335.5C 346.5,335 347,334.5 347.5,334C 347.5,330 347.5,326 347.5,322C 346.756,320.961 345.756,320.461 344.5,320.5C 344.597,316.651 344.931,312.817 345.5,309C 345.513,304.167 343.18,302.5 338.5,304C 337.547,305.955 336.213,307.622 334.5,309C 331.318,309.407 328.151,309.907 325,310.5C 324.167,310.167 323.333,309.833 322.5,309.5C 329.478,300.688 336.645,292.021 344,283.5C 344.76,279.775 344.593,276.108 343.5,272.5C 330.517,271.501 317.517,271.168 304.5,271.5C 317.705,270.816 331.039,270.15 344.5,269.5C 345.324,272.785 345.824,276.118 346,279.5C 346.5,279 347,278.5 347.5,278C 346.402,185.215 346.402,92.3822 347.5,-0.5 Z"/></g>
<g><path style="opacity:1" fill="#29e185" d="M 399.5,-0.5 C 415.5,-0.5 431.5,-0.5 447.5,-0.5C 447.611,0.117425 447.944,0.617425 448.5,1C 447.167,2.33333 445.833,3.66667 444.5,5C 445.833,6.33333 447.167,7.66667 448.5,9C 447.167,10.3333 445.833,11.6667 444.5,13C 445.833,14.3333 447.167,15.6667 448.5,17C 447.167,18.3333 445.833,19.6667 444.5,21C 445.833,22.3333 447.167,23.6667 448.5,25C 447.167,26.3333 445.833,27.6667 444.5,29C 445.833,30.3333 447.167,31.6667 448.5,33C 447.167,34.3333 445.833,35.6667 444.5,37C 445.833,38.3333 447.167,39.6667 448.5,41C 447.167,42.3333 445.833,43.6667 444.5,45C 445.833,46.3333 447.167,47.6667 448.5,49C 447.167,50.3333 445.833,51.6667 444.5,53C 445.833,54.3333 447.167,55.6667 448.5,57C 447.167,58.3333 445.833,59.6667 444.5,61C 445.833,62.3333 447.167,63.6667 448.5,65C 447.167,66.3333 445.833,67.6667 444.5,69C 445.833,70.3333 447.167,71.6667 448.5,73C 447.167,74.3333 445.833,75.6667 444.5,77C 445.833,78.3333 447.167,79.6667 448.5,81C 447.167,82.3333 445.833,83.6667 444.5,85C 445.833,86.3333 447.167,87.6667 448.5,89C 447.167,90.3333 445.833,91.6667 444.5,93C 445.833,94.3333 447.167,95.6667 448.5,97C 447.167,98.3333 445.833,99.6667 444.5,101C 445.833,102.333 447.167,103.667 448.5,105C 447.167,106.333 445.833,107.667 444.5,109C 445.833,110.333 447.167,111.667 448.5,113C 447.167,114.333 445.833,115.667 444.5,117C 445.833,118.333 447.167,119.667 448.5,121C 447.167,122.333 445.833,123.667 444.5,125C 445.833,126.333 447.167,127.667 448.5,129C 447.167,130.333 445.833,131.667 444.5,133C 445.833,134.333 447.167,135.667 448.5,137C 447.167,138.333 445.833,139.667 444.5,141C 445.833,142.333 447.167,143.667 448.5,145C 447.167,146.333 445.833,147.667 444.5,149C 445.833,150.333 447.167,151.667 448.5,153C 447.167,154.333 445.833,155.667 444.5,157C 445.833,158.333 447.167,159.667 448.5,161C 447.167,162.333 445.833,163.667 444.5,165C 445.833,166.333 447.167,167.667 448.5,169C 447.167,170.333 445.833,171.667 444.5,173C 445.833,174.333 447.167,175.667 448.5,177C 447.167,178.333 445.833,179.667 444.5,181C 445.833,182.333 447.167,183.667 448.5,185C 447.167,186.333 445.833,187.667 444.5,189C 445.833,190.333 447.167,191.667 448.5,193C 447.167,194.333 445.833,195.667 444.5,197C 445.833,198.333 447.167,199.667 448.5,201C 447.167,202.333 445.833,203.667 444.5,205C 445.833,206.333 447.167,207.667 448.5,209C 447.167,210.333 445.833,211.667 444.5,213C 445.833,214.333 447.167,215.667 448.5,217C 447.167,218.333 445.833,219.667 444.5,221C 445.833,222.333 447.167,223.667 448.5,225C 447.167,226.333 445.833,227.667 444.5,229C 445.833,230.333 447.167,231.667 448.5,233C 447.167,234.333 445.833,235.667 444.5,237C 445.833,238.333 447.167,239.667 448.5,241C 447.167,242.333 445.833,243.667 444.5,245C 445.833,246.333 447.167,247.667 448.5,249C 447.167,250.333 445.833,251.667 444.5,253C 445.833,254.333 447.167,255.667 448.5,257C 447.167,258.333 445.833,259.667 444.5,261C 445.833,262.333 447.167,263.667 448.5,265C 447.167,266.333 445.833,267.667 444.5,269C 445.833,270.333 447.167,271.667 448.5,273C 447.167,274.333 445.833,275.667 444.5,277C 445.833,278.333 447.167,279.667 448.5,281C 447.167,282.333 445.833,283.667 444.5,285C 445.833,286.333 447.167,287.667 448.5,289C 447.167,290.333 445.833,291.667 444.5,293C 445.833,294.333 447.167,295.667 448.5,297C 447.167,298.333 445.833,299.667 444.5,301C 445.833,302.333 447.167,303.667 448.5,305C 447.167,306.333 445.833,307.667 444.5,309C 445.833,310.333 447.167,311.667 448.5,313C 447.167,314.333 445.833,315.667 444.5,317C 445.833,318.333 447.167,319.667 448.5,321C 447.167,322.333 445.833,323.667 444.5,325C 445.833,326.333 447.167,327.667 448.5,329C 447.167,330.333 445.833,331.667 444.5,333C 445.833,334.333 447.167,335.667 448.5,337C 447.167,338.333 445.833,339.667 444.5,341C 445.833,342.333 447.167,343.667 448.5,345C 447.167,346.333 445.833,347.667 444.5,349C 445.833,350.333 447.167,351.667 448.5,353C 447.167,354.333 445.833,355.667 444.5,357C 445.833,358.333 447.167,359.667 448.5,361C 447.167,362.333 445.833,363.667 444.5,365C 445.833,366.333 447.167,367.667 448.5,369C 447.167,370.333 445.833,371.667 444.5,373C 445.833,374.333 447.167,375.667 448.5,377C 447.167,378.333 445.833,379.667 444.5,381C 445.833,382.333 447.167,383.667 448.5,385C 447.167,386.333 445.833,387.667 444.5,389C 445.833,390.333 447.167,391.667 448.5,393C 447.167,394.333 445.833,395.667 444.5,397C 445.833,398.333 447.167,399.667 448.5,401C 447.167,402.333 445.833,403.667 444.5,405C 445.833,406.333 447.167,407.667 448.5,409C 447.167,410.333 445.833,411.667 444.5,413C 445.833,414.333 447.167,415.667 448.5,417C 447.167,418.333 445.833,419.667 444.5,421C 445.833,422.333 447.167,423.667 448.5,425C 447.167,426.333 445.833,427.667 444.5,429C 445.833,430.333 447.167,431.667 448.5,433C 447.167,434.333 445.833,435.667 444.5,437C 445.833,438.333 447.167,439.667 448.5,441C 447.167,442.333 445.833,443.667 444.5,445C 445.833,446.333 447.167,447.667 448.5,449C 447.167,450.333 445.833,451.667 444.5,453C 445.833,454.333 447.167,455.667 448.5,457C 447.167,458.333 445.833,459.667 444.5,461C 445.833,462.333 447.167,463.667 448.5,465C 447.167,466.333 445.833,467.667 444.5,469C 445.833,470.333 447.167,471.667 448.5,473C 447.167,474.333 445.833,475.667 444.5,477C 445.833,478.333 447.167,479.667 448.5,481C 447.167,482.333 445.833,483.667 444.5,485C 445.833,486.333 447.167,487.667 448.5,489C 447.167,490.333 445.833,491.667 444.5,493C 445.833,494.333 447.167,495.667 448.5,497C 447.619,497.708 446.953,498.542 446.5,499.5C 430.5,499.5 414.5,499.5 398.5,499.5C 399.598,498.603 399.598,497.77 398.5,497C 401.167,495.667 401.167,494.333 398.5,493C 398.5,491.667 398.5,490.333 398.5,489C 401.167,487.667 401.167,486.333 398.5,485C 398.5,483.667 398.5,482.333 398.5,481C 401.167,479.667 401.167,478.333 398.5,477C 398.5,475.667 398.5,474.333 398.5,473C 401.167,471.667 401.167,470.333 398.5,469C 398.5,467.667 398.5,466.333 398.5,465C 401.167,463.667 401.167,462.333 398.5,461C 398.5,459.667 398.5,458.333 398.5,457C 401.167,455.667 401.167,454.333 398.5,453C 398.5,451.667 398.5,450.333 398.5,449C 401.167,447.667 401.167,446.333 398.5,445C 398.5,443.667 398.5,442.333 398.5,441C 401.167,439.667 401.167,438.333 398.5,437C 398.5,435.667 398.5,434.333 398.5,433C 401.167,431.667 401.167,430.333 398.5,429C 398.5,427.667 398.5,426.333 398.5,425C 401.167,423.667 401.167,422.333 398.5,421C 398.5,419.667 398.5,418.333 398.5,417C 401.167,415.667 401.167,414.333 398.5,413C 398.5,411.667 398.5,410.333 398.5,409C 401.167,407.667 401.167,406.333 398.5,405C 398.5,403.667 398.5,402.333 398.5,401C 401.167,399.667 401.167,398.333 398.5,397C 398.5,395.667 398.5,394.333 398.5,393C 401.167,391.667 401.167,390.333 398.5,389C 398.5,387.667 398.5,386.333 398.5,385C 401.167,383.667 401.167,382.333 398.5,381C 398.5,379.667 398.5,378.333 398.5,377C 401.167,375.667 401.167,374.333 398.5,373C 398.5,371.667 398.5,370.333 398.5,369C 401.167,367.667 401.167,366.333 398.5,365C 398.5,363.667 398.5,362.333 398.5,361C 401.167,359.667 401.167,358.333 398.5,357C 398.5,355.667 398.5,354.333 398.5,353C 401.167,351.667 401.167,350.333 398.5,349C 398.5,347.667 398.5,346.333 398.5,345C 401.167,343.667 401.167,342.333 398.5,341C 399.016,338.967 398.35,338.967 396.5,341C 399.028,343.075 398.861,343.908 396,343.5C 395.768,344.737 395.268,345.737 394.5,346.5C 394.361,344.663 393.694,344.33 392.5,345.5C 390.043,355.935 388.043,355.601 386.5,344.5C 385.325,344.281 384.325,344.614 383.5,345.5C 382.235,348.796 381.068,352.129 380,355.5C 378.85,351.888 378.017,348.222 377.5,344.5C 376.448,344.351 375.448,344.517 374.5,345C 375.252,345.671 375.586,346.504 375.5,347.5C 374.373,346.878 373.373,346.045 372.5,345C 375.167,343.667 375.167,342.333 372.5,341C 374.044,340.71 375.377,340.044 376.5,339C 373.833,337.667 373.833,336.333 376.5,335C 373.833,333.667 373.833,332.333 376.5,331C 375.254,327.24 372.588,324.406 368.5,322.5C 375.165,322.626 381.332,320.959 387,317.5C 388.009,319.025 388.509,320.692 388.5,322.5C 395.201,321.716 401.868,320.716 408.5,319.5C 409.155,314.95 407.321,311.95 403,310.5C 402.667,297.833 402.333,285.167 402,272.5C 399.619,271.565 397.119,271.232 394.5,271.5C 395.952,270.698 397.618,270.198 399.5,270C 399.167,268.333 398.833,266.667 398.5,265C 401.167,263.667 401.167,262.333 398.5,261C 398.5,259.667 398.5,258.333 398.5,257C 401.167,255.667 401.167,254.333 398.5,253C 398.5,251.667 398.5,250.333 398.5,249C 401.167,247.667 401.167,246.333 398.5,245C 398.5,243.667 398.5,242.333 398.5,241C 401.167,239.667 401.167,238.333 398.5,237C 398.5,235.667 398.5,234.333 398.5,233C 401.167,231.667 401.167,230.333 398.5,229C 398.5,227.667 398.5,226.333 398.5,225C 401.167,223.667 401.167,222.333 398.5,221C 398.5,219.667 398.5,218.333 398.5,217C 401.167,215.667 401.167,214.333 398.5,213C 398.5,211.667 398.5,210.333 398.5,209C 401.167,207.667 401.167,206.333 398.5,205C 398.5,203.667 398.5,202.333 398.5,201C 401.167,199.667 401.167,198.333 398.5,197C 398.5,195.667 398.5,194.333 398.5,193C 401.167,191.667 401.167,190.333 398.5,189C 398.5,187.667 398.5,186.333 398.5,185C 401.167,183.667 401.167,182.333 398.5,181C 398.5,179.667 398.5,178.333 398.5,177C 401.167,175.667 401.167,174.333 398.5,173C 398.5,171.667 398.5,170.333 398.5,169C 401.167,167.667 401.167,166.333 398.5,165C 398.5,163.667 398.5,162.333 398.5,161C 401.167,159.667 401.167,158.333 398.5,157C 398.5,155.667 398.5,154.333 398.5,153C 401.167,151.667 401.167,150.333 398.5,149C 398.5,147.667 398.5,146.333 398.5,145C 401.167,143.667 401.167,142.333 398.5,141C 398.5,139.667 398.5,138.333 398.5,137C 401.167,135.667 401.167,134.333 398.5,133C 398.5,131.667 398.5,130.333 398.5,129C 401.167,127.667 401.167,126.333 398.5,125C 398.5,123.667 398.5,122.333 398.5,121C 401.167,119.667 401.167,118.333 398.5,117C 398.5,115.667 398.5,114.333 398.5,113C 401.167,111.667 401.167,110.333 398.5,109C 398.5,107.667 398.5,106.333 398.5,105C 401.167,103.667 401.167,102.333 398.5,101C 398.5,99.6667 398.5,98.3333 398.5,97C 401.167,95.6667 401.167,94.3333 398.5,93C 398.5,91.6667 398.5,90.3333 398.5,89C 401.167,87.6667 401.167,86.3333 398.5,85C 398.5,83.6667 398.5,82.3333 398.5,81C 401.167,79.6667 401.167,78.3333 398.5,77C 398.5,75.6667 398.5,74.3333 398.5,73C 401.167,71.6667 401.167,70.3333 398.5,69C 398.5,67.6667 398.5,66.3333 398.5,65C 401.167,63.6667 401.167,62.3333 398.5,61C 398.5,59.6667 398.5,58.3333 398.5,57C 401.167,55.6667 401.167,54.3333 398.5,53C 398.5,51.6667 398.5,50.3333 398.5,49C 401.167,47.6667 401.167,46.3333 398.5,45C 398.5,43.6667 398.5,42.3333 398.5,41C 401.167,39.6667 401.167,38.3333 398.5,37C 398.5,35.6667 398.5,34.3333 398.5,33C 401.167,31.6667 401.167,30.3333 398.5,29C 398.5,27.6667 398.5,26.3333 398.5,25C 401.167,23.6667 401.167,22.3333 398.5,21C 398.5,19.6667 398.5,18.3333 398.5,17C 401.167,15.6667 401.167,14.3333 398.5,13C 398.5,11.6667 398.5,10.3333 398.5,9C 401.167,7.66667 401.167,6.33333 398.5,5C 399.074,3.23791 399.407,1.40457 399.5,-0.5 Z"/></g>
<g><path style="opacity:1" fill="#26df83" d="M 447.5,-0.5 C 455.5,-0.5 463.5,-0.5 471.5,-0.5C 471.167,166.167 470.833,332.833 470.5,499.5C 462.5,499.5 454.5,499.5 446.5,499.5C 446.953,498.542 447.619,497.708 448.5,497C 447.167,495.667 445.833,494.333 444.5,493C 445.833,491.667 447.167,490.333 448.5,489C 447.167,487.667 445.833,486.333 444.5,485C 445.833,483.667 447.167,482.333 448.5,481C 447.167,479.667 445.833,478.333 444.5,477C 445.833,475.667 447.167,474.333 448.5,473C 447.167,471.667 445.833,470.333 444.5,469C 445.833,467.667 447.167,466.333 448.5,465C 447.167,463.667 445.833,462.333 444.5,461C 445.833,459.667 447.167,458.333 448.5,457C 447.167,455.667 445.833,454.333 444.5,453C 445.833,451.667 447.167,450.333 448.5,449C 447.167,447.667 445.833,446.333 444.5,445C 445.833,443.667 447.167,442.333 448.5,441C 447.167,439.667 445.833,438.333 444.5,437C 445.833,435.667 447.167,434.333 448.5,433C 447.167,431.667 445.833,430.333 444.5,429C 445.833,427.667 447.167,426.333 448.5,425C 447.167,423.667 445.833,422.333 444.5,421C 445.833,419.667 447.167,418.333 448.5,417C 447.167,415.667 445.833,414.333 444.5,413C 445.833,411.667 447.167,410.333 448.5,409C 447.167,407.667 445.833,406.333 444.5,405C 445.833,403.667 447.167,402.333 448.5,401C 447.167,399.667 445.833,398.333 444.5,397C 445.833,395.667 447.167,394.333 448.5,393C 447.167,391.667 445.833,390.333 444.5,389C 445.833,387.667 447.167,386.333 448.5,385C 447.167,383.667 445.833,382.333 444.5,381C 445.833,379.667 447.167,378.333 448.5,377C 447.167,375.667 445.833,374.333 444.5,373C 445.833,371.667 447.167,370.333 448.5,369C 447.167,367.667 445.833,366.333 444.5,365C 445.833,363.667 447.167,362.333 448.5,361C 447.167,359.667 445.833,358.333 444.5,357C 445.833,355.667 447.167,354.333 448.5,353C 447.167,351.667 445.833,350.333 444.5,349C 445.833,347.667 447.167,346.333 448.5,345C 447.167,343.667 445.833,342.333 444.5,341C 445.833,339.667 447.167,338.333 448.5,337C 447.167,335.667 445.833,334.333 444.5,333C 445.833,331.667 447.167,330.333 448.5,329C 447.167,327.667 445.833,326.333 444.5,325C 445.833,323.667 447.167,322.333 448.5,321C 447.167,319.667 445.833,318.333 444.5,317C 445.833,315.667 447.167,314.333 448.5,313C 447.167,311.667 445.833,310.333 444.5,309C 445.833,307.667 447.167,306.333 448.5,305C 447.167,303.667 445.833,302.333 444.5,301C 445.833,299.667 447.167,298.333 448.5,297C 447.167,295.667 445.833,294.333 444.5,293C 445.833,291.667 447.167,290.333 448.5,289C 447.167,287.667 445.833,286.333 444.5,285C 445.833,283.667 447.167,282.333 448.5,281C 447.167,279.667 445.833,278.333 444.5,277C 445.833,275.667 447.167,274.333 448.5,273C 447.167,271.667 445.833,270.333 444.5,269C 445.833,267.667 447.167,266.333 448.5,265C 447.167,263.667 445.833,262.333 444.5,261C 445.833,259.667 447.167,258.333 448.5,257C 447.167,255.667 445.833,254.333 444.5,253C 445.833,251.667 447.167,250.333 448.5,249C 447.167,247.667 445.833,246.333 444.5,245C 445.833,243.667 447.167,242.333 448.5,241C 447.167,239.667 445.833,238.333 444.5,237C 445.833,235.667 447.167,234.333 448.5,233C 447.167,231.667 445.833,230.333 444.5,229C 445.833,227.667 447.167,226.333 448.5,225C 447.167,223.667 445.833,222.333 444.5,221C 445.833,219.667 447.167,218.333 448.5,217C 447.167,215.667 445.833,214.333 444.5,213C 445.833,211.667 447.167,210.333 448.5,209C 447.167,207.667 445.833,206.333 444.5,205C 445.833,203.667 447.167,202.333 448.5,201C 447.167,199.667 445.833,198.333 444.5,197C 445.833,195.667 447.167,194.333 448.5,193C 447.167,191.667 445.833,190.333 444.5,189C 445.833,187.667 447.167,186.333 448.5,185C 447.167,183.667 445.833,182.333 444.5,181C 445.833,179.667 447.167,178.333 448.5,177C 447.167,175.667 445.833,174.333 444.5,173C 445.833,171.667 447.167,170.333 448.5,169C 447.167,167.667 445.833,166.333 444.5,165C 445.833,163.667 447.167,162.333 448.5,161C 447.167,159.667 445.833,158.333 444.5,157C 445.833,155.667 447.167,154.333 448.5,153C 447.167,151.667 445.833,150.333 444.5,149C 445.833,147.667 447.167,146.333 448.5,145C 447.167,143.667 445.833,142.333 444.5,141C 445.833,139.667 447.167,138.333 448.5,137C 447.167,135.667 445.833,134.333 444.5,133C 445.833,131.667 447.167,130.333 448.5,129C 447.167,127.667 445.833,126.333 444.5,125C 445.833,123.667 447.167,122.333 448.5,121C 447.167,119.667 445.833,118.333 444.5,117C 445.833,115.667 447.167,114.333 448.5,113C 447.167,111.667 445.833,110.333 444.5,109C 445.833,107.667 447.167,106.333 448.5,105C 447.167,103.667 445.833,102.333 444.5,101C 445.833,99.6667 447.167,98.3333 448.5,97C 447.167,95.6667 445.833,94.3333 444.5,93C 445.833,91.6667 447.167,90.3333 448.5,89C 447.167,87.6667 445.833,86.3333 444.5,85C 445.833,83.6667 447.167,82.3333 448.5,81C 447.167,79.6667 445.833,78.3333 444.5,77C 445.833,75.6667 447.167,74.3333 448.5,73C 447.167,71.6667 445.833,70.3333 444.5,69C 445.833,67.6667 447.167,66.3333 448.5,65C 447.167,63.6667 445.833,62.3333 444.5,61C 445.833,59.6667 447.167,58.3333 448.5,57C 447.167,55.6667 445.833,54.3333 444.5,53C 445.833,51.6667 447.167,50.3333 448.5,49C 447.167,47.6667 445.833,46.3333 444.5,45C 445.833,43.6667 447.167,42.3333 448.5,41C 447.167,39.6667 445.833,38.3333 444.5,37C 445.833,35.6667 447.167,34.3333 448.5,33C 447.167,31.6667 445.833,30.3333 444.5,29C 445.833,27.6667 447.167,26.3333 448.5,25C 447.167,23.6667 445.833,22.3333 444.5,21C 445.833,19.6667 447.167,18.3333 448.5,17C 447.167,15.6667 445.833,14.3333 444.5,13C 445.833,11.6667 447.167,10.3333 448.5,9C 447.167,7.66667 445.833,6.33333 444.5,5C 445.833,3.66667 447.167,2.33333 448.5,1C 447.944,0.617425 447.611,0.117425 447.5,-0.5 Z"/></g>
<g><path style="opacity:1" fill="#24dd81" d="M 471.5,-0.5 C 480.833,-0.5 490.167,-0.5 499.5,-0.5C 499.5,166.167 499.5,332.833 499.5,499.5C 489.833,499.5 480.167,499.5 470.5,499.5C 470.833,332.833 471.167,166.167 471.5,-0.5 Z"/></g>
<g><path style="opacity:1" fill="#07110b" d="M 258.5,109.5 C 278.64,106.842 292.474,114.842 300,133.5C 302.869,145.561 300.369,156.395 292.5,166C 307.956,166.794 319.123,173.961 326,187.5C 328.911,209.31 319.411,221.977 297.5,225.5C 278.59,225.826 259.757,225.493 241,224.5C 240.283,225.044 239.783,225.711 239.5,226.5C 231.14,231.339 222.14,233.172 212.5,232C 201.038,227.882 191.871,220.716 185,210.5C 183.268,206.637 181.934,202.637 181,198.5C 180.333,170.833 180.333,143.167 181,115.5C 184.255,105.921 190.088,98.4212 198.5,93C 222.19,87.3227 236.69,96.4894 242,120.5C 246.688,115.421 252.188,111.754 258.5,109.5 Z"/></g>
<g><path style="opacity:1" fill="#4bfaa2" d="M 242.5,188.5 C 242.5,170.167 242.5,151.833 242.5,133.5C 256.503,144.18 270.17,155.347 283.5,167C 284.635,167.749 285.635,167.583 286.5,166.5C 272.731,153.788 258.397,141.788 243.5,130.5C 242.659,128.621 242.325,126.621 242.5,124.5C 251.894,112.663 263.894,109.163 278.5,114C 296.207,122.78 302.04,136.613 296,155.5C 294.92,157.996 293.586,160.33 292,162.5C 274.833,182.333 257.667,202.167 240.5,222C 229.569,229.8 217.902,231.133 205.5,226C 220.662,227.004 231.828,220.837 239,207.5C 240.896,209.53 243.063,211.197 245.5,212.5C 246.308,212.192 246.975,211.692 247.5,211C 244.517,209.016 241.85,206.683 239.5,204C 241.19,198.986 242.19,193.82 242.5,188.5 Z"/></g>
<g><path style="opacity:1" fill="#242826" d="M 260.5,158.5 C 263.325,158.081 265.491,159.081 267,161.5C 267.165,165.977 264.998,167.477 260.5,166C 257.914,163.506 257.914,161.006 260.5,158.5 Z"/></g>
<g><path style="opacity:1" fill="#222423" d="M 246.5,147.5 C 253.004,147.138 254.671,149.638 251.5,155C 245.785,155.401 244.119,152.901 246.5,147.5 Z"/></g>
<g><path style="opacity:1" fill="#1f6844" d="M 242.5,124.5 C 242.325,126.621 242.659,128.621 243.5,130.5C 242.596,131.209 242.263,132.209 242.5,133.5C 242.5,151.833 242.5,170.167 242.5,188.5C 241.167,167.167 241.167,145.833 242.5,124.5 Z"/></g>
<g><path style="opacity:1" fill="#242b27" d="M 271.5,132.5 C 275.843,132.347 278.01,134.347 278,138.5C 275.451,142.255 272.784,142.255 270,138.5C 269.591,136.305 270.091,134.305 271.5,132.5 Z"/></g>
<g><path style="opacity:1" fill="#0b1710" d="M 243.5,130.5 C 258.397,141.788 272.731,153.788 286.5,166.5C 285.635,167.583 284.635,167.749 283.5,167C 270.17,155.347 256.503,144.18 242.5,133.5C 242.263,132.209 242.596,131.209 243.5,130.5 Z"/></g>
<g><path style="opacity:1" fill="#4bfba3" d="M 204.5,93.5 C 219.799,92.2319 230.633,98.5652 237,112.5C 238.961,117.639 239.794,122.972 239.5,128.5C 220.5,128.5 201.5,128.5 182.5,128.5C 182.516,112.116 189.849,100.45 204.5,93.5 Z"/></g>
<g><path style="opacity:1" fill="#222423" d="M 208.5,111.5 C 214.158,110.679 215.825,112.846 213.5,118C 207.741,119.139 206.074,116.972 208.5,111.5 Z"/></g>
<g><path style="opacity:1" fill="#4cfca4" d="M 298.5,222.5 C 295.167,222.5 291.833,222.5 288.5,222.5C 288.5,205.5 288.5,188.5 288.5,171.5C 305.13,168.072 316.963,174.406 324,190.5C 325.047,208.632 316.547,219.299 298.5,222.5 Z"/></g>
<g><path style="opacity:1" fill="#232624" d="M 247.5,172.5 C 253.487,171.977 255.487,174.477 253.5,180C 247.281,180.944 245.281,178.444 247.5,172.5 Z"/></g>
<g><path style="opacity:1" fill="#36b576" d="M 288.5,171.5 C 288.5,188.5 288.5,205.5 288.5,222.5C 291.833,222.5 295.167,222.5 298.5,222.5C 295.038,223.482 291.371,223.815 287.5,223.5C 287.17,205.992 287.503,188.659 288.5,171.5 Z"/></g>
<g><path style="opacity:1" fill="#216e47" d="M 284.5,223.5 C 284.83,207.658 284.496,191.991 283.5,176.5C 283.783,175.711 284.283,175.044 285,174.5C 285.828,191.005 285.662,207.339 284.5,223.5 Z"/></g>
<g><path style="opacity:1" fill="#4bfaa3" d="M 283.5,176.5 C 284.496,191.991 284.83,207.658 284.5,223.5C 270.829,223.667 257.163,223.5 243.5,223C 247.5,218.667 251.5,214.333 255.5,210C 257.81,209.503 260.143,209.337 262.5,209.5C 262.5,206.833 262.5,204.167 262.5,201.5C 265.167,201.5 267.833,201.5 270.5,201.5C 270.335,198.15 270.502,194.817 271,191.5C 275.378,186.627 279.545,181.627 283.5,176.5 Z"/></g>
<g><path style="opacity:1" fill="#37b978" d="M 183.5,131.5 C 183.5,149.167 183.5,166.833 183.5,184.5C 201.833,184.5 220.167,184.5 238.5,184.5C 238.5,166.833 238.5,149.167 238.5,131.5C 239.497,149.326 239.83,167.326 239.5,185.5C 220.5,185.5 201.5,185.5 182.5,185.5C 182.17,167.326 182.503,149.326 183.5,131.5 Z"/></g>
<g><path style="opacity:1" fill="#4cfda5" d="M 183.5,131.5 C 201.833,131.5 220.167,131.5 238.5,131.5C 238.5,149.167 238.5,166.833 238.5,184.5C 220.167,184.5 201.833,184.5 183.5,184.5C 183.5,166.833 183.5,149.167 183.5,131.5 Z"/></g>
<g><path style="opacity:1" fill="#020503" d="M 205.5,145.5 C 209.167,145.5 212.833,145.5 216.5,145.5C 216.5,148.167 216.5,150.833 216.5,153.5C 219.167,153.5 221.833,153.5 224.5,153.5C 224.5,156.833 224.5,160.167 224.5,163.5C 221.833,163.5 219.167,163.5 216.5,163.5C 216.5,166.167 216.5,168.833 216.5,171.5C 212.833,171.5 209.167,171.5 205.5,171.5C 205.5,168.833 205.5,166.167 205.5,163.5C 202.833,163.5 200.167,163.5 197.5,163.5C 197.5,160.167 197.5,156.833 197.5,153.5C 200.167,153.5 202.833,153.5 205.5,153.5C 205.5,150.833 205.5,148.167 205.5,145.5 Z"/></g>
<g><path style="opacity:1" fill="#164c31" d="M 238.5,196.5 C 238.5,193.833 238.5,191.167 238.5,188.5C 220.167,188.5 201.833,188.5 183.5,188.5C 183.5,191.167 183.5,193.833 183.5,196.5C 182.523,193.713 182.19,190.713 182.5,187.5C 201.5,187.5 220.5,187.5 239.5,187.5C 239.81,190.713 239.477,193.713 238.5,196.5 Z"/></g>
<g><path style="opacity:1" fill="#4cfba4" d="M 238.5,196.5 C 234.993,214.854 223.993,223.687 205.5,223C 192.875,218.543 185.542,209.71 183.5,196.5C 183.5,193.833 183.5,191.167 183.5,188.5C 201.833,188.5 220.167,188.5 238.5,188.5C 238.5,191.167 238.5,193.833 238.5,196.5 Z"/></g>
<g><path style="opacity:1" fill="#232725" d="M 299.5,192.5 C 305.158,191.679 306.825,193.846 304.5,199C 297.561,200.574 295.894,198.407 299.5,192.5 Z"/></g>
<g><path style="opacity:1" fill="#232825" d="M 209.5,197.5 C 210.93,197.421 212.264,197.754 213.5,198.5C 215.89,204.608 214.056,206.608 208,204.5C 207.185,201.802 207.685,199.468 209.5,197.5 Z"/></g>
<g><path style="opacity:1" fill="#33e98e" d="M 259.5,-0.5 C 288.833,-0.5 318.167,-0.5 347.5,-0.5C 346.402,92.3822 346.402,185.215 347.5,278C 347,278.5 346.5,279 346,279.5C 345.824,276.118 345.324,272.785 344.5,269.5C 331.039,270.15 317.705,270.816 304.5,271.5C 304.034,277.491 303.701,283.491 303.5,289.5C 305.857,289.663 308.19,289.497 310.5,289C 313.738,283.108 318.738,281.108 325.5,283C 317.667,292.167 309.833,301.333 302,310.5C 302.238,314.109 302.405,317.775 302.5,321.5C 316.677,321.829 330.677,321.496 344.5,320.5C 345.756,320.461 346.756,320.961 347.5,322C 347.5,326 347.5,330 347.5,334C 347,334.5 346.5,335 346,335.5C 345.257,333.355 344.424,333.189 343.5,335C 344.424,336.15 344.424,337.15 343.5,338C 344.167,338.333 344.833,338.667 345.5,339C 342.833,339.667 342.833,340.333 345.5,341C 344.572,341.388 343.905,342.055 343.5,343C 344.424,344.15 344.424,345.15 343.5,346C 346.113,347.071 346.113,347.905 343.5,348.5C 341.167,345.833 338.833,343.167 336.5,340.5C 335.791,339.596 334.791,339.263 333.5,339.5C 333.177,346.022 333.51,352.355 334.5,358.5C 334.833,358.5 335.167,358.5 335.5,358.5C 336.167,353.833 336.833,349.167 337.5,344.5C 339.833,347.833 342.167,351.167 344.5,354.5C 343.892,356.875 343.559,359.375 343.5,362C 346.167,362.667 346.167,363.333 343.5,364C 346.167,366 346.167,368 343.5,370C 346.167,370.667 346.167,371.333 343.5,372C 344.833,373.333 346.167,374.667 347.5,376C 347.402,417.119 347.069,458.285 346.5,499.5C 316.5,499.5 286.5,499.5 256.5,499.5C 257.29,498.206 258.29,497.039 259.5,496C 258.167,495.333 258.167,494.667 259.5,494C 258.5,493 257.5,492 256.5,491C 257.5,490 258.5,489 259.5,488C 258.167,487.333 258.167,486.667 259.5,486C 258.5,485 257.5,484 256.5,483C 257.5,482 258.5,481 259.5,480C 258.167,479.333 258.167,478.667 259.5,478C 258.5,477 257.5,476 256.5,475C 257.5,474 258.5,473 259.5,472C 258.167,471.333 258.167,470.667 259.5,470C 258.5,469 257.5,468 256.5,467C 257.5,466 258.5,465 259.5,464C 258.167,463.333 258.167,462.667 259.5,462C 258.5,461 257.5,460 256.5,459C 257.5,458 258.5,457 259.5,456C 258.167,455.333 258.167,454.667 259.5,454C 258.5,453 257.5,452 256.5,451C 257.5,450 258.5,449 259.5,448C 258.167,447.333 258.167,446.667 259.5,446C 258.5,445 257.5,444 256.5,443C 257.5,442 258.5,441 259.5,440C 258.167,439.333 258.167,438.667 259.5,438C 258.5,437 257.5,436 256.5,435C 257.5,434 258.5,433 259.5,432C 258.167,431.333 258.167,430.667 259.5,430C 258.5,429 257.5,428 256.5,427C 257.5,426 258.5,425 259.5,424C 258.167,423.333 258.167,422.667 259.5,422C 258.5,421 257.5,420 256.5,419C 257.5,418 258.5,417 259.5,416C 258.167,415.333 258.167,414.667 259.5,414C 258.5,413 257.5,412 256.5,411C 257.5,410 258.5,409 259.5,408C 258.167,407.333 258.167,406.667 259.5,406C 258.5,405 257.5,404 256.5,403C 257.5,402 258.5,401 259.5,400C 258.167,399.333 258.167,398.667 259.5,398C 258.5,397 257.5,396 256.5,395C 257.5,394 258.5,393 259.5,392C 258.167,391.333 258.167,390.667 259.5,390C 258.5,389 257.5,388 256.5,387C 257.5,386 258.5,385 259.5,384C 258.167,383.333 258.167,382.667 259.5,382C 258.5,381 257.5,380 256.5,379C 257.5,378 258.5,377 259.5,376C 258.167,375.333 258.167,374.667 259.5,374C 258.5,373 257.5,372 256.5,371C 257.5,370 258.5,369 259.5,368C 258.167,367.333 258.167,366.667 259.5,366C 258.5,365 257.5,364 256.5,363C 257.5,362 258.5,361 259.5,360C 259.381,355.712 259.381,351.212 259.5,346.5C 260.166,350.353 260.833,354.353 261.5,358.5C 262.491,354.555 262.824,350.555 262.5,346.5C 266.5,345.833 266.5,345.167 262.5,344.5C 262.785,342.712 262.452,341.045 261.5,339.5C 260.83,341.291 260.163,342.958 259.5,344.5C 259.66,342.801 259.494,341.134 259,339.5C 258.667,339.833 258.333,340.167 258,340.5C 256.563,338.779 257.063,337.279 259.5,336C 258.167,335.333 258.167,334.667 259.5,334C 258.5,333 257.5,332 256.5,331C 257.5,330 258.5,329 259.5,328C 258.167,327.333 258.167,326.667 259.5,326C 257.35,324.808 256.683,323.308 257.5,321.5C 260.5,321.5 263.5,321.5 266.5,321.5C 266.813,318.753 266.48,316.086 265.5,313.5C 263.742,312.872 262.242,311.872 261,310.5C 260.5,301.506 260.334,292.506 260.5,283.5C 264.846,283.334 269.179,283.501 273.5,284C 274,284.5 274.5,285 275,285.5C 275.5,294.16 275.666,302.827 275.5,311.5C 274.167,311.5 272.833,311.5 271.5,311.5C 271.5,314.833 271.5,318.167 271.5,321.5C 280.167,321.5 288.833,321.5 297.5,321.5C 298.47,316.296 296.637,312.629 292,310.5C 291.667,300.5 291.333,290.5 291,280.5C 288.121,273.387 282.788,270.054 275,270.5C 269.706,271.32 264.539,272.653 259.5,274.5C 259.5,273.5 259.5,272.5 259.5,271.5C 257.167,271.5 254.833,271.5 252.5,271.5C 254.631,270.686 256.964,270.186 259.5,270C 258.5,269 257.5,268 256.5,267C 257.5,266 258.5,265 259.5,264C 258.167,263.333 258.167,262.667 259.5,262C 258.5,261 257.5,260 256.5,259C 257.5,258 258.5,257 259.5,256C 258.167,255.333 258.167,254.667 259.5,254C 258.5,253 257.5,252 256.5,251C 257.5,250 258.5,249 259.5,248C 258.167,247.333 258.167,246.667 259.5,246C 258.5,245 257.5,244 256.5,243C 257.5,242 258.5,241 259.5,240C 258.167,239.333 258.167,238.667 259.5,238C 258.5,237 257.5,236 256.5,235C 257.5,234 258.5,233 259.5,232C 258.167,231.333 258.167,230.667 259.5,230C 258.29,228.961 257.29,227.794 256.5,226.5C 270.344,226.829 284.01,226.496 297.5,225.5C 319.411,221.977 328.911,209.31 326,187.5C 319.123,173.961 307.956,166.794 292.5,166C 300.369,156.395 302.869,145.561 300,133.5C 292.474,114.842 278.64,106.842 258.5,109.5C 258.047,108.542 257.381,107.708 256.5,107C 257.5,106 258.5,105 259.5,104C 258.167,103.333 258.167,102.667 259.5,102C 258.5,101 257.5,100 256.5,99C 257.5,98 258.5,97 259.5,96C 258.167,95.3333 258.167,94.6667 259.5,94C 258.5,93 257.5,92 256.5,91C 257.5,90 258.5,89 259.5,88C 258.167,87.3333 258.167,86.6667 259.5,86C 258.5,85 257.5,84 256.5,83C 257.5,82 258.5,81 259.5,80C 258.167,79.3333 258.167,78.6667 259.5,78C 258.5,77 257.5,76 256.5,75C 257.5,74 258.5,73 259.5,72C 258.167,71.3333 258.167,70.6667 259.5,70C 258.5,69 257.5,68 256.5,67C 257.5,66 258.5,65 259.5,64C 258.167,63.3333 258.167,62.6667 259.5,62C 258.5,61 257.5,60 256.5,59C 257.5,58 258.5,57 259.5,56C 258.167,55.3333 258.167,54.6667 259.5,54C 258.5,53 257.5,52 256.5,51C 257.5,50 258.5,49 259.5,48C 258.167,47.3333 258.167,46.6667 259.5,46C 258.5,45 257.5,44 256.5,43C 257.5,42 258.5,41 259.5,40C 258.167,39.3333 258.167,38.6667 259.5,38C 258.5,37 257.5,36 256.5,35C 257.5,34 258.5,33 259.5,32C 258.167,31.3333 258.167,30.6667 259.5,30C 258.5,29 257.5,28 256.5,27C 257.5,26 258.5,25 259.5,24C 258.167,23.3333 258.167,22.6667 259.5,22C 258.5,21 257.5,20 256.5,19C 257.5,18 258.5,17 259.5,16C 258.167,15.3333 258.167,14.6667 259.5,14C 258.5,13 257.5,12 256.5,11C 257.5,10 258.5,9 259.5,8C 258.167,7.33333 258.167,6.66667 259.5,6C 258.5,5 257.5,4 256.5,3C 257.71,1.9609 258.71,0.794229 259.5,-0.5 Z"/></g>
<g><path style="opacity:1" fill="#103f28" d="M 297.5,225.5 C 284.01,226.496 270.344,226.829 256.5,226.5C 250.833,226.5 245.167,226.5 239.5,226.5C 239.783,225.711 240.283,225.044 241,224.5C 259.757,225.493 278.59,225.826 297.5,225.5 Z"/></g>
<g><path style="opacity:1" fill="#13472d" d="M 121.5,256.5 C 121.5,256.833 121.5,257.167 121.5,257.5C 112.5,257.5 103.5,257.5 94.5,257.5C 94.5,260.5 94.5,263.5 94.5,266.5C 93.5206,263.375 93.1872,260.042 93.5,256.5C 102.833,256.5 112.167,256.5 121.5,256.5 Z"/></g>
<g><path style="opacity:1" fill="#145032" d="M 173.5,256.5 C 174.787,257.871 175.453,259.705 175.5,262C 175.494,264.033 175.161,265.866 174.5,267.5C 174.5,264.167 174.5,260.833 174.5,257.5C 165.749,257.197 157.082,257.53 148.5,258.5C 156.433,256.532 164.766,255.865 173.5,256.5 Z"/></g>
<g><path style="opacity:1" fill="#020503" d="M 121.5,257.5 C 126.151,271.408 130.818,285.408 135.5,299.5C 140.049,285.856 144.382,272.19 148.5,258.5C 157.082,257.53 165.749,257.197 174.5,257.5C 174.5,260.833 174.5,264.167 174.5,267.5C 172.833,267.5 171.167,267.5 169.5,267.5C 170.566,281.595 172.4,295.595 175,309.5C 178.897,312.563 180.397,316.563 179.5,321.5C 177.5,321.5 175.5,321.5 173.5,321.5C 165.833,321.5 158.167,321.5 150.5,321.5C 150.726,318.751 150.393,316.084 149.5,313.5C 151.173,311.914 153.173,311.247 155.5,311.5C 156.748,310.666 157.415,309.333 157.5,307.5C 157.489,305.955 157.156,304.622 156.5,303.5C 155.865,295.486 155.032,287.486 154,279.5C 150.114,293.6 145.947,307.6 141.5,321.5C 136.198,322.663 130.864,322.829 125.5,322C 120.859,307.742 116.025,293.576 111,279.5C 109.949,289.848 109.782,300.181 110.5,310.5C 112.059,311.074 113.559,311.74 115,312.5C 115.498,315.482 115.665,318.482 115.5,321.5C 111.5,321.5 107.5,321.5 103.5,321.5C 99.5,321.5 95.5,321.5 91.5,321.5C 91.6556,318.934 91.3223,316.434 90.5,314C 91.6133,312.606 92.9466,311.439 94.5,310.5C 96.5012,298.157 98.5012,285.823 100.5,273.5C 100.035,269.916 98.0353,267.583 94.5,266.5C 94.5,263.5 94.5,260.5 94.5,257.5C 103.5,257.5 112.5,257.5 121.5,257.5 Z"/></g>
<g><path style="opacity:1" fill="#010402" d="M 199.5,270.5 C 206.563,270.212 213.563,270.712 220.5,272C 224.333,273.167 226.833,275.667 228,279.5C 228.333,289.5 228.667,299.5 229,309.5C 232.184,310.842 234.017,313.176 234.5,316.5C 234.291,317.994 233.624,319.161 232.5,320C 227.207,320.977 221.874,321.477 216.5,321.5C 216.688,319.897 216.188,318.563 215,317.5C 208.07,321.773 200.57,323.273 192.5,322C 185.208,317.679 183.042,311.513 186,303.5C 193.814,295.663 203.314,292.329 214.5,293.5C 214.297,283.541 209.297,280.208 199.5,283.5C 198.5,285.5 197.5,287.5 196.5,289.5C 193.914,290.48 191.247,290.813 188.5,290.5C 188.079,284.798 187.412,279.131 186.5,273.5C 191.052,272.943 195.385,271.943 199.5,270.5 Z"/></g>
<g><path style="opacity:1" fill="#010301" d="M 257.5,321.5 C 251.167,321.5 244.833,321.5 238.5,321.5C 238.5,318.167 238.5,314.833 238.5,311.5C 240.467,311.739 242.301,311.406 244,310.5C 244.667,301.833 244.667,293.167 244,284.5C 242.758,283.128 241.258,282.128 239.5,281.5C 238.167,278.833 238.167,276.167 239.5,273.5C 243.769,272.462 248.102,271.795 252.5,271.5C 254.833,271.5 257.167,271.5 259.5,271.5C 259.5,272.5 259.5,273.5 259.5,274.5C 264.539,272.653 269.706,271.32 275,270.5C 282.788,270.054 288.121,273.387 291,280.5C 291.333,290.5 291.667,300.5 292,310.5C 296.637,312.629 298.47,316.296 297.5,321.5C 288.833,321.5 280.167,321.5 271.5,321.5C 271.5,318.167 271.5,314.833 271.5,311.5C 272.833,311.5 274.167,311.5 275.5,311.5C 275.666,302.827 275.5,294.16 275,285.5C 274.5,285 274,284.5 273.5,284C 269.179,283.501 264.846,283.334 260.5,283.5C 260.334,292.506 260.5,301.506 261,310.5C 262.242,311.872 263.742,312.872 265.5,313.5C 266.48,316.086 266.813,318.753 266.5,321.5C 263.5,321.5 260.5,321.5 257.5,321.5 Z"/></g>
<g><path style="opacity:1" fill="#010302" d="M 304.5,271.5 C 317.517,271.168 330.517,271.501 343.5,272.5C 344.593,276.108 344.76,279.775 344,283.5C 336.645,292.021 329.478,300.688 322.5,309.5C 323.333,309.833 324.167,310.167 325,310.5C 328.151,309.907 331.318,309.407 334.5,309C 336.213,307.622 337.547,305.955 338.5,304C 343.18,302.5 345.513,304.167 345.5,309C 344.931,312.817 344.597,316.651 344.5,320.5C 330.677,321.496 316.677,321.829 302.5,321.5C 302.405,317.775 302.238,314.109 302,310.5C 309.833,301.333 317.667,292.167 325.5,283C 318.738,281.108 313.738,283.108 310.5,289C 308.19,289.497 305.857,289.663 303.5,289.5C 303.701,283.491 304.034,277.491 304.5,271.5 Z"/></g>
<g><path style="opacity:1" fill="#010503" d="M 394.5,271.5 C 397.119,271.232 399.619,271.565 402,272.5C 402.333,285.167 402.667,297.833 403,310.5C 407.321,311.95 409.155,314.95 408.5,319.5C 401.868,320.716 395.201,321.716 388.5,322.5C 388.509,320.692 388.009,319.025 387,317.5C 381.332,320.959 375.165,322.626 368.5,322.5C 362.812,321.989 358.979,318.989 357,313.5C 355.807,303.883 355.141,294.216 355,284.5C 353.758,283.128 352.258,282.128 350.5,281.5C 349.52,278.914 349.187,276.247 349.5,273.5C 354.276,272.522 359.11,271.855 364,271.5C 366.167,271.833 368.333,272.167 370.5,272.5C 371.313,284.121 371.813,295.787 372,307.5C 373.822,309.045 375.989,309.712 378.5,309.5C 381.197,309.297 383.864,308.964 386.5,308.5C 386.831,300.14 386.498,291.807 385.5,283.5C 381.183,281.688 379.517,278.355 380.5,273.5C 385.186,272.906 389.853,272.239 394.5,271.5 Z"/></g>
<g><path style="opacity:1" fill="#40f49a" d="M 156.5,303.5 C 156.721,306.279 156.388,308.946 155.5,311.5C 153.173,311.247 151.173,311.914 149.5,313.5C 150.393,316.084 150.726,318.751 150.5,321.5C 158.167,321.5 165.833,321.5 173.5,321.5C 174.598,326.383 174.598,331.216 173.5,336C 172.234,336.309 171.067,336.809 170,337.5C 168.636,336.742 167.469,337.242 166.5,339C 169.167,340.333 169.167,341.667 166.5,343C 169.167,344.333 169.167,345.667 166.5,347C 167.579,348.859 168.912,350.359 170.5,351.5C 170.833,351.5 171.167,351.5 171.5,351.5C 169.281,353.433 167.948,355.933 167.5,359C 168.833,363 168.833,367 167.5,371C 168.093,372.882 169.427,373.882 171.5,374C 171.167,374.333 170.833,374.667 170.5,375C 174.281,375.367 174.948,376.7 172.5,379C 175.167,380.333 175.167,381.667 172.5,383C 175.167,384.333 175.167,385.667 172.5,387C 175.167,388.333 175.167,389.667 172.5,391C 175.167,392.333 175.167,393.667 172.5,395C 175.167,396.333 175.167,397.667 172.5,399C 175.167,400.333 175.167,401.667 172.5,403C 175.167,404.333 175.167,405.667 172.5,407C 175.167,408.333 175.167,409.667 172.5,411C 175.167,412.333 175.167,413.667 172.5,415C 175.167,416.333 175.167,417.667 172.5,419C 175.167,420.333 175.167,421.667 172.5,423C 175.167,424.333 175.167,425.667 172.5,427C 175.167,428.333 175.167,429.667 172.5,431C 175.167,432.333 175.167,433.667 172.5,435C 175.167,436.333 175.167,437.667 172.5,439C 175.167,440.333 175.167,441.667 172.5,443C 175.167,444.333 175.167,445.667 172.5,447C 175.167,448.333 175.167,449.667 172.5,451C 175.167,452.333 175.167,453.667 172.5,455C 175.167,456.333 175.167,457.667 172.5,459C 175.167,460.333 175.167,461.667 172.5,463C 175.167,464.333 175.167,465.667 172.5,467C 175.167,468.333 175.167,469.667 172.5,471C 175.167,472.333 175.167,473.667 172.5,475C 175.167,476.333 175.167,477.667 172.5,479C 175.167,480.333 175.167,481.667 172.5,483C 175.167,484.333 175.167,485.667 172.5,487C 175.167,488.333 175.167,489.667 172.5,491C 175.167,492.333 175.167,493.667 172.5,495C 174.931,496.432 174.931,497.932 172.5,499.5C 149.167,499.5 125.833,499.5 102.5,499.5C 103.317,497.692 102.65,496.192 100.5,495C 101.5,494 102.5,493 103.5,492C 102.167,491.333 102.167,490.667 103.5,490C 102.5,489 101.5,488 100.5,487C 101.5,486 102.5,485 103.5,484C 102.167,483.333 102.167,482.667 103.5,482C 102.5,481 101.5,480 100.5,479C 101.5,478 102.5,477 103.5,476C 102.167,475.333 102.167,474.667 103.5,474C 102.5,473 101.5,472 100.5,471C 101.5,470 102.5,469 103.5,468C 102.167,467.333 102.167,466.667 103.5,466C 102.5,465 101.5,464 100.5,463C 101.5,462 102.5,461 103.5,460C 102.167,459.333 102.167,458.667 103.5,458C 102.5,457 101.5,456 100.5,455C 101.5,454 102.5,453 103.5,452C 102.167,451.333 102.167,450.667 103.5,450C 102.5,449 101.5,448 100.5,447C 101.5,446 102.5,445 103.5,444C 102.167,443.333 102.167,442.667 103.5,442C 102.5,441 101.5,440 100.5,439C 101.5,438 102.5,437 103.5,436C 102.167,435.333 102.167,434.667 103.5,434C 102.5,433 101.5,432 100.5,431C 101.5,430 102.5,429 103.5,428C 102.167,427.333 102.167,426.667 103.5,426C 102.5,425 101.5,424 100.5,423C 101.5,422 102.5,421 103.5,420C 102.167,419.333 102.167,418.667 103.5,418C 102.5,417 101.5,416 100.5,415C 101.5,414 102.5,413 103.5,412C 102.167,411.333 102.167,410.667 103.5,410C 102.5,409 101.5,408 100.5,407C 101.5,406 102.5,405 103.5,404C 102.167,403.333 102.167,402.667 103.5,402C 102.5,401 101.5,400 100.5,399C 101.5,398 102.5,397 103.5,396C 102.167,395.333 102.167,394.667 103.5,394C 102.5,393 101.5,392 100.5,391C 101.5,390 102.5,389 103.5,388C 102.167,387.333 102.167,386.667 103.5,386C 102.5,385 101.5,384 100.5,383C 101.5,382 102.5,381 103.5,380C 102.167,379.333 102.167,378.667 103.5,378C 102.5,377 101.5,376 100.5,375C 101.5,374 102.5,373 103.5,372C 102.167,371.333 102.167,370.667 103.5,370C 102.5,369 101.5,368 100.5,367C 101.5,366 102.5,365 103.5,364C 102.167,363.333 102.167,362.667 103.5,362C 102.5,361 101.5,360 100.5,359C 101.5,358 102.5,357 103.5,356C 102.167,355.333 102.167,354.667 103.5,354C 102.5,353 101.5,352 100.5,351C 101.5,350 102.5,349 103.5,348C 102.167,347.333 102.167,346.667 103.5,346C 102.5,345 101.5,344 100.5,343C 101.5,342 102.5,341 103.5,340C 102.167,339.333 102.167,338.667 103.5,338C 102.5,337 101.5,336 100.5,335C 101.5,334 102.5,333 103.5,332C 102.167,331.333 102.167,330.667 103.5,330C 102.5,329 101.5,328 100.5,327C 101.5,326 102.5,325 103.5,324C 102.402,323.23 102.402,322.397 103.5,321.5C 107.5,321.5 111.5,321.5 115.5,321.5C 115.665,318.482 115.498,315.482 115,312.5C 113.559,311.74 112.059,311.074 110.5,310.5C 109.782,300.181 109.949,289.848 111,279.5C 116.025,293.576 120.859,307.742 125.5,322C 130.864,322.829 136.198,322.663 141.5,321.5C 145.947,307.6 150.114,293.6 154,279.5C 155.032,287.486 155.865,295.486 156.5,303.5 Z"/></g>
<g><path style="opacity:1" fill="#37e28d" d="M 204.5,301.5 C 207.833,301.5 211.167,301.5 214.5,301.5C 214.795,310.389 210.462,313.556 201.5,311C 199.556,308.847 199.056,306.347 200,303.5C 201.622,302.901 203.122,302.234 204.5,301.5 Z"/></g>
<g><path style="opacity:1" fill="#1c6b43" d="M 156.5,303.5 C 157.156,304.622 157.489,305.955 157.5,307.5C 157.415,309.333 156.748,310.666 155.5,311.5C 156.388,308.946 156.721,306.279 156.5,303.5 Z"/></g>
<g><path style="opacity:1" fill="#0f2117" d="M 259.5,346.5 C 256.833,345.833 256.833,345.167 259.5,344.5C 260.163,342.958 260.83,341.291 261.5,339.5C 262.452,341.045 262.785,342.712 262.5,344.5C 266.5,345.167 266.5,345.833 262.5,346.5C 262.824,350.555 262.491,354.555 261.5,358.5C 260.833,354.353 260.166,350.353 259.5,346.5 Z"/></g>
<g><path style="opacity:1" fill="#1f754a" d="M 121.5,340.5 C 122.209,339.596 123.209,339.263 124.5,339.5C 124.823,346.022 124.49,352.355 123.5,358.5C 124.12,352.074 123.453,346.074 121.5,340.5 Z"/></g>
<g><path style="opacity:1" fill="#1b7246" d="M 211.5,340.5 C 212.209,339.596 213.209,339.263 214.5,339.5C 214.823,346.022 214.49,352.355 213.5,358.5C 214.12,352.074 213.453,346.074 211.5,340.5 Z"/></g>
<g><path style="opacity:1" fill="#197c4a" d="M 336.5,340.5 C 334.547,346.074 333.88,352.074 334.5,358.5C 333.51,352.355 333.177,346.022 333.5,339.5C 334.791,339.263 335.791,339.596 336.5,340.5 Z"/></g>
<g><path style="opacity:1" fill="#030a05" d="M 336.5,340.5 C 338.833,343.167 341.167,345.833 343.5,348.5C 344.34,350.853 345.674,352.853 347.5,354.5C 348.358,350.593 348.858,345.926 349,340.5C 349.499,346.491 349.666,352.491 349.5,358.5C 347.225,357.889 345.559,356.555 344.5,354.5C 342.167,351.167 339.833,347.833 337.5,344.5C 337.217,343.711 336.717,343.044 336,342.5C 335.501,347.823 335.334,353.156 335.5,358.5C 335.167,358.5 334.833,358.5 334.5,358.5C 333.88,352.074 334.547,346.074 336.5,340.5 Z"/></g>
<g><path style="opacity:1" fill="#177144" d="M 349.5,358.5 C 349.666,352.491 349.499,346.491 349,340.5C 348.858,345.926 348.358,350.593 347.5,354.5C 347.5,349.5 347.5,344.5 347.5,339.5C 348.5,339.5 349.5,339.5 350.5,339.5C 350.823,346.022 350.49,352.355 349.5,358.5 Z"/></g>
<g><path style="opacity:1" fill="#1f8050" d="M 198.5,340.5 C 196.547,346.074 195.88,352.074 196.5,358.5C 195.51,352.355 195.177,346.022 195.5,339.5C 196.791,339.263 197.791,339.596 198.5,340.5 Z"/></g>
<g><path style="opacity:1" fill="#0a1910" d="M 359.5,344.5 C 367.829,343.664 370.995,347.33 369,355.5C 365.61,359.032 361.943,359.366 358,356.5C 355.784,352.132 356.284,348.132 359.5,344.5 Z"/></g>
<g><path style="opacity:1" fill="#06110a" d="M 280.5,340.5 C 281.552,340.351 282.552,340.517 283.5,341C 285.31,343.644 287.31,346.144 289.5,348.5C 291.69,346.144 293.69,343.644 295.5,341C 296.448,340.517 297.448,340.351 298.5,340.5C 298.829,346.537 298.496,352.537 297.5,358.5C 296.671,353.533 296.171,348.533 296,343.5C 293.993,346.336 291.826,349.003 289.5,351.5C 287.144,348.978 284.977,346.312 283,343.5C 282.829,348.533 282.329,353.533 281.5,358.5C 280.504,352.537 280.171,346.537 280.5,340.5 Z"/></g>
<g><path style="opacity:1" fill="#0d1c13" d="M 308.5,344.5 C 314.857,343.532 318.19,346.198 318.5,352.5C 314.833,352.5 311.167,352.5 307.5,352.5C 308.382,356.143 310.716,357.31 314.5,356C 315.424,354.511 316.424,354.344 317.5,355.5C 313.674,359.442 309.841,359.442 306,355.5C 303.584,351.078 304.417,347.411 308.5,344.5 Z"/></g>
<g><path style="opacity:1" fill="#2ed883" d="M 309.5,346.5 C 312.596,345.907 314.929,346.907 316.5,349.5C 313.216,350.657 309.882,350.824 306.5,350C 307.365,348.641 308.365,347.474 309.5,346.5 Z"/></g>
<g><path style="opacity:1" fill="#2de187" d="M 360.5,346.5 C 367.628,346.706 369.294,349.873 365.5,356C 359.498,356.993 357.332,354.493 359,348.5C 359.717,347.956 360.217,347.289 360.5,346.5 Z"/></g>
<g><path style="opacity:1" fill="#0e1d14" d="M 133.5,344.5 C 140.001,343.341 143.668,346.007 144.5,352.5C 140.445,352.176 136.445,352.509 132.5,353.5C 133.337,355.505 134.837,356.505 137,356.5C 139.076,355.388 141.243,354.888 143.5,355C 140.918,358.282 137.584,359.282 133.5,358C 129.555,353.503 129.555,349.003 133.5,344.5 Z"/></g>
<g><path style="opacity:1" fill="#3fef97" d="M 134.5,346.5 C 137.596,345.907 139.929,346.907 141.5,349.5C 138.5,350.833 135.5,350.833 132.5,349.5C 133.193,348.482 133.859,347.482 134.5,346.5 Z"/></g>
<g><path style="opacity:1" fill="#0d1d14" d="M 223.5,344.5 C 230.001,343.341 233.668,346.007 234.5,352.5C 230.445,352.176 226.445,352.509 222.5,353.5C 223.337,355.505 224.837,356.505 227,356.5C 229.076,355.388 231.243,354.888 233.5,355C 230.918,358.282 227.584,359.282 223.5,358C 219.555,353.503 219.555,349.003 223.5,344.5 Z"/></g>
<g><path style="opacity:1" fill="#38e990" d="M 224.5,346.5 C 227.596,345.907 229.929,346.907 231.5,349.5C 228.5,350.833 225.5,350.833 222.5,349.5C 223.193,348.482 223.859,347.482 224.5,346.5 Z"/></g>
<g><path style="opacity:1" fill="#0d1c13" d="M 242.5,344.5 C 249.001,343.341 252.668,346.007 253.5,352.5C 249.445,352.176 245.445,352.509 241.5,353.5C 242.337,355.505 243.837,356.505 246,356.5C 248.076,355.388 250.243,354.888 252.5,355C 249.918,358.282 246.584,359.282 242.5,358C 238.555,353.503 238.555,349.003 242.5,344.5 Z"/></g>
<g><path style="opacity:1" fill="#36e78f" d="M 243.5,346.5 C 246.596,345.907 248.929,346.907 250.5,349.5C 247.5,350.833 244.5,350.833 241.5,349.5C 242.193,348.482 242.859,347.482 243.5,346.5 Z"/></g>
<g><path style="opacity:1" fill="#125936" d="M 337.5,344.5 C 336.833,349.167 336.167,353.833 335.5,358.5C 335.334,353.156 335.501,347.823 336,342.5C 336.717,343.044 337.217,343.711 337.5,344.5 Z"/></g>
<g><path style="opacity:1" fill="#0f1c14" d="M 121.5,340.5 C 123.453,346.074 124.12,352.074 123.5,358.5C 121.72,354.273 120.886,349.606 121,344.5C 119.374,347.128 117.374,349.461 115,351.5C 112.675,349.499 110.842,347.166 109.5,344.5C 109.44,343.957 109.107,343.624 108.5,343.5C 107.506,348.456 107.173,353.456 107.5,358.5C 106.51,352.69 106.177,346.69 106.5,340.5C 110.056,342.218 112.89,344.884 115,348.5C 117.031,345.645 119.197,342.978 121.5,340.5 Z"/></g>
<g><path style="opacity:1" fill="#195d3b" d="M 109.5,344.5 C 108.833,349.167 108.167,353.833 107.5,358.5C 107.173,353.456 107.506,348.456 108.5,343.5C 109.107,343.624 109.44,343.957 109.5,344.5 Z"/></g>
<g><path style="opacity:1" fill="#0c1912" d="M 160.5,338.5 C 161.82,341.428 162.486,344.761 162.5,348.5C 162.167,351.833 161.833,355.167 161.5,358.5C 160.676,356.252 159.676,356.086 158.5,358C 150.668,358.821 147.835,355.321 150,347.5C 152.612,344.424 155.779,343.757 159.5,345.5C 160.474,343.257 160.808,340.924 160.5,338.5 Z"/></g>
<g><path style="opacity:1" fill="#3eef96" d="M 153.5,346.5 C 160.628,346.706 162.294,349.873 158.5,356C 152.498,356.993 150.332,354.493 152,348.5C 152.717,347.956 153.217,347.289 153.5,346.5 Z"/></g>
<g><path style="opacity:1" fill="#0e1c14" d="M 198.5,340.5 C 200.803,342.978 202.969,345.645 205,348.5C 207.031,345.645 209.197,342.978 211.5,340.5C 213.453,346.074 214.12,352.074 213.5,358.5C 211.72,354.273 210.886,349.606 211,344.5C 209.374,347.128 207.374,349.461 205,351.5C 202.675,349.499 200.842,347.166 199.5,344.5C 199.44,343.957 199.107,343.624 198.5,343.5C 197.506,348.456 197.173,353.456 197.5,358.5C 197.167,358.5 196.833,358.5 196.5,358.5C 195.88,352.074 196.547,346.074 198.5,340.5 Z"/></g>
<g><path style="opacity:1" fill="#165b38" d="M 199.5,344.5 C 198.833,349.167 198.167,353.833 197.5,358.5C 197.173,353.456 197.506,348.456 198.5,343.5C 199.107,343.624 199.44,343.957 199.5,344.5 Z"/></g>
<g><path style="opacity:1" fill="#0f1f16" d="M 171.5,351.5 C 171.167,351.5 170.833,351.5 170.5,351.5C 168.284,344.918 170.618,342.751 177.5,345C 179.26,345.965 179.594,347.132 178.5,348.5C 176.477,346.827 174.144,346.16 171.5,346.5C 171.33,347.822 171.663,348.989 172.5,350C 174.952,350.29 177.285,350.956 179.5,352C 181.14,354.776 180.473,356.776 177.5,358C 175.5,358.667 173.5,358.667 171.5,358C 169.74,357.035 169.406,355.868 170.5,354.5C 173.281,357.135 175.947,357.135 178.5,354.5C 176.513,352.673 174.179,351.673 171.5,351.5 Z"/></g>
<g><path style="opacity:1" fill="#0b1910" d="M 394.5,346.5 C 393.222,350.667 391.556,354.667 389.5,358.5C 387.52,355.068 386.02,351.402 385,347.5C 383.326,351.021 382.16,354.687 381.5,358.5C 380.5,358.5 379.5,358.5 378.5,358.5C 378.106,354.653 377.106,350.986 375.5,347.5C 375.586,346.504 375.252,345.671 374.5,345C 375.448,344.517 376.448,344.351 377.5,344.5C 378.017,348.222 378.85,351.888 380,355.5C 381.068,352.129 382.235,348.796 383.5,345.5C 384.325,344.614 385.325,344.281 386.5,344.5C 388.043,355.601 390.043,355.935 392.5,345.5C 393.694,344.33 394.361,344.663 394.5,346.5 Z"/></g>
</svg>
