<?xml version="1.0" encoding="UTF-8"?>
<svg version="1.1" xmlns="http://www.w3.org/2000/svg" width="156" height="157">
<path d="M0 0 C8.64308434 5.50014458 14.44858526 13.41331109 17.01953125 23.3046875 C17.50907229 25.68197927 17.93487377 28.04681737 18.27734375 30.44921875 C18.68984375 30.07410156 19.10234375 29.69898438 19.52734375 29.3125 C28.00748224 21.79773442 36.70294148 16.6149233 48.33984375 16.07421875 C56.9198025 16.89135768 64.06653999 19.30505452 70.27734375 25.44921875 C77.60125718 34.38439313 79.16964765 43.06558416 78.27734375 54.44921875 C77.13118971 60.17998896 75.10622253 65.33029524 72.27734375 70.44921875 C73.03917969 70.5471875 73.80101563 70.64515625 74.5859375 70.74609375 C86.7459549 72.50709502 96.92742627 76.57968198 104.65234375 86.51171875 C110.16488684 94.04142146 110.34763999 102.4564531 109.27734375 111.44921875 C107.14050762 119.38455679 101.88980587 124.80870644 95.27734375 129.44921875 C89.00425343 132.91196461 83.38404394 134.55098135 76.22363281 134.65454102 C75.00266907 134.67448624 73.78170532 134.69443146 72.52374268 134.71498108 C71.21008728 134.73169357 69.89643188 134.74840607 68.54296875 134.765625 C67.18104439 134.78620794 65.81912623 134.80720476 64.45721436 134.82859802 C60.87999503 134.8836804 57.30271937 134.93315039 53.72540283 134.98144531 C50.07209281 135.03176164 46.41886417 135.08739472 42.765625 135.14257812 C35.60293358 135.24999037 28.44017429 135.3514726 21.27734375 135.44921875 C20.94734375 136.10921875 20.61734375 136.76921875 20.27734375 137.44921875 C12.19075793 140.64624105 0.32428315 142.84913057 -7.9765625 139.5546875 C-9.57393962 138.54337268 -11.14958131 137.49793538 -12.72265625 136.44921875 C-13.65078125 136.44921875 -14.57890625 136.44921875 -15.53515625 136.44921875 C-20.39255463 136.44921875 -24.31371665 134.33876429 -28.72265625 132.44921875 C-29.71265625 132.11921875 -30.70265625 131.78921875 -31.72265625 131.44921875 C-31.72265625 130.78921875 -31.72265625 130.12921875 -31.72265625 129.44921875 C-32.32078125 129.18367187 -32.91890625 128.918125 -33.53515625 128.64453125 C-39.51710229 125.37582502 -43.34661617 118.66347742 -45.72265625 112.44921875 C-46.80988183 108.14411038 -46.87705979 103.92588595 -46.88378906 99.51293945 C-46.88875397 98.72847946 -46.89371887 97.94401947 -46.89883423 97.13578796 C-46.91339936 94.54884959 -46.92024928 91.96197259 -46.92578125 89.375 C-46.93153842 87.56764221 -46.93729608 85.76028442 -46.9430542 83.95292664 C-46.95354888 80.16433428 -46.95940122 76.37576304 -46.96289062 72.5871582 C-46.96836466 67.75327784 -46.99237584 62.91968066 -47.02086258 58.08588886 C-47.03956986 54.35132557 -47.0446989 50.6168293 -47.0462265 46.88222313 C-47.04923656 45.10138594 -47.05720885 43.32054947 -47.07041168 41.53975868 C-47.15983193 28.54903104 -47.00062532 17.49031082 -37.72265625 7.44921875 C-27.4408233 -2.94317155 -13.91400365 -6.59815481 0 0 Z " fill="#0B2116" transform="translate(46.72265625,2.55078125)"/>
<path d="M0 0 C19.14 0 38.28 0 58 0 C58 17.82 58 35.64 58 54 C38.86 54 19.72 54 0 54 C0 36.18 0 18.36 0 0 Z " fill="#4CFAA3" transform="translate(3,42)"/>
<path d="M0 0 C2.94876216 1.47438108 5.49538298 2.91492485 8.2109375 4.73046875 C9.03376221 5.27944824 9.85658691 5.82842773 10.7043457 6.39404297 C11.58566162 6.98588379 12.46697754 7.57772461 13.375 8.1875 C14.74241333 9.10233154 14.74241333 9.10233154 16.13745117 10.03564453 C26.468053 16.96025371 36.73884919 23.97303557 47 31 C46.44109496 35.06801409 45.20356087 37.56111028 42.82421875 40.88671875 C42.16615234 41.81734131 41.50808594 42.74796387 40.83007812 43.70678711 C40.12302734 44.69042236 39.41597656 45.67405762 38.6875 46.6875 C37.23159822 48.74374832 35.7771891 50.80105425 34.32421875 52.859375 C33.5976709 53.88611328 32.87112305 54.91285156 32.12255859 55.97070312 C29.01025 60.41256245 25.99486531 64.91591297 23 69.4375 C22.23562622 70.59028442 22.23562622 70.59028442 21.45581055 71.76635742 C20.30183361 73.50955615 19.15056187 75.25454534 18 77 C16.33290064 76.33441608 14.66635962 75.66743376 13 75 C11.90042969 74.63390625 10.80085938 74.2678125 9.66796875 73.890625 C5.34354036 71.85217391 2.27539672 70.32492685 0 66 C-1.7319457 56.19371205 -0.77952241 45.86626292 0 36 C1.65 36.33 3.3 36.66 5 37 C5.33 35.68 5.66 34.36 6 33 C2.95086772 31.98888907 2.95086772 31.98888907 0 33 C0 22.11 0 11.22 0 0 Z " fill="#4BF9A2" transform="translate(64,43)"/>
<path d="M0 0 C8.35571878 5.21849836 13.51115589 11.1923947 15.8828125 20.83203125 C16.8775923 25.27679206 17.1328125 28.67284751 17.1328125 33.33203125 C-2.0071875 33.33203125 -21.1471875 33.33203125 -40.8671875 33.33203125 C-40.8671875 23.36424489 -39.33013345 14.55846558 -32.7421875 6.76953125 C-23.44063592 -2.45602727 -12.18284898 -6.17875674 0 0 Z " fill="#4BF7A1" transform="translate(43.8671875,5.66796875)"/>
<path d="M0 0 C19.14 0 38.28 0 58 0 C58 9.48042542 56.87134667 16.40178667 51 24 C50.2575 25.010625 49.515 26.02125 48.75 27.0625 C44.24413278 32.36352026 38.42254039 35.50546673 31.5546875 36.2734375 C23.11596305 36.59327254 17.24356653 34.58097456 10.7734375 29.12109375 C2.48403059 20.69197773 0 11.61891156 0 0 Z " fill="#4BF7A1" transform="translate(3,99)"/>
<path d="M0 0 C5.54138201 4.0976503 9.32462989 9.28860613 11 16 C12.24919578 26.88216946 9.90875852 35.40359821 5 45 C1.76984373 44.37362505 -0.42697308 43.24498895 -3.140625 41.40234375 C-3.95313721 40.85529785 -4.76564941 40.30825195 -5.6027832 39.74462891 C-6.47636475 39.14827637 -7.34994629 38.55192383 -8.25 37.9375 C-10.12353452 36.67293497 -11.99723969 35.40862273 -13.87109375 34.14453125 C-14.85964355 33.47502441 -15.84819336 32.80551758 -16.86669922 32.11572266 C-22.33114761 28.42592137 -27.82350922 24.77816255 -33.3125 21.125 C-35.3712139 19.7527844 -37.4298182 18.38040436 -39.48828125 17.0078125 C-40.36009033 16.42660645 -41.23189941 15.84540039 -42.13012695 15.24658203 C-42.74718506 14.83520996 -43.36424316 14.42383789 -44 14 C-39.95232525 5.69438168 -33.52260205 0.78815151 -25.125 -2.875 C-16.50300022 -5.73189278 -7.79165148 -4.49416075 0 0 Z " fill="#4BF9A2" transform="translate(110,27)"/>
<path d="M0 0 C12.06854321 0 19.12825567 1.75944697 28 10 C34.12515273 16.30442549 35.43533056 21.31906612 35.43823242 29.92114258 C35.28304676 35.92826336 34.03670815 39.62875803 30 44 C29.236875 44.886875 28.47375 45.77375 27.6875 46.6875 C18.76817591 54.36226724 12.3171149 56 0 56 C0 37.52 0 19.04 0 0 Z " fill="#4CFBA3" transform="translate(117,78)"/>
<path d="M0 0 C8.64308434 5.50014458 14.44858526 13.41331109 17.01953125 23.3046875 C17.50907229 25.68197927 17.93487377 28.04681737 18.27734375 30.44921875 C18.68984375 30.07410156 19.10234375 29.69898438 19.52734375 29.3125 C28.00748224 21.79773442 36.70294148 16.6149233 48.33984375 16.07421875 C56.9198025 16.89135768 64.06653999 19.30505452 70.27734375 25.44921875 C77.60125718 34.38439313 79.16964765 43.06558416 78.27734375 54.44921875 C77.13118971 60.17998896 75.10622253 65.33029524 72.27734375 70.44921875 C71.28734375 69.45921875 70.29734375 68.46921875 69.27734375 67.44921875 C69.75593616 65.84488066 70.23523933 64.24075459 70.71484375 62.63671875 C70.98167969 61.74339844 71.24851562 60.85007813 71.5234375 59.9296875 C72.08122248 58.0944882 72.6707895 56.26888149 73.27734375 54.44921875 C74.10186261 45.39129009 73.74720089 37.94955316 68.27734375 30.44921875 C63.4867951 24.97264492 57.91440601 22.09325517 50.74609375 21.09765625 C41.67466589 20.60237714 33.32888253 23.67617773 26.27734375 29.38671875 C23.38748473 32.10700169 21.30272571 35.04657705 19.27734375 38.44921875 C19.93734375 38.77921875 20.59734375 39.10921875 21.27734375 39.44921875 C19.95734375 39.44921875 18.63734375 39.44921875 17.27734375 39.44921875 C17.60734375 50.33921875 17.93734375 61.22921875 18.27734375 72.44921875 C19.59734375 72.11921875 20.91734375 71.78921875 22.27734375 71.44921875 C22.93734375 72.10921875 23.59734375 72.76921875 24.27734375 73.44921875 C23.90234375 75.57421875 23.90234375 75.57421875 23.27734375 77.44921875 C21.33984375 78.01171875 21.33984375 78.01171875 19.27734375 78.44921875 C18.94734375 78.11921875 18.61734375 77.78921875 18.27734375 77.44921875 C18.27734375 87.34921875 18.27734375 97.24921875 18.27734375 107.44921875 C16.29734375 107.94421875 16.29734375 107.94421875 14.27734375 108.44921875 C14.27734375 104.48921875 14.27734375 100.52921875 14.27734375 96.44921875 C-5.19265625 96.44921875 -24.66265625 96.44921875 -44.72265625 96.44921875 C-44.72265625 99.41921875 -44.72265625 102.38921875 -44.72265625 105.44921875 C-45.05265625 105.44921875 -45.38265625 105.44921875 -45.72265625 105.44921875 C-46.6652627 96.21414968 -46.90106946 87.02818951 -46.92578125 77.75390625 C-46.92860863 77.02717838 -46.931436 76.30045052 -46.93434906 75.55170059 C-46.94920633 71.71463933 -46.95852368 67.87761444 -46.96289062 64.04052734 C-46.9683935 60.10922914 -46.99249825 56.17827401 -47.02086258 52.24708366 C-47.03958572 49.19108115 -47.04469941 46.13516037 -47.0462265 43.07910538 C-47.04922553 41.6304039 -47.05715934 40.18170289 -47.07041168 38.73305893 C-47.17349424 26.61294206 -46.21588489 16.64102464 -37.72265625 7.44921875 C-27.4408233 -2.94317155 -13.91400365 -6.59815481 0 0 Z M-37.72265625 12.44921875 C-40.10576983 15.98280095 -41.39573666 19.19139821 -42.41015625 23.32421875 C-42.66152344 24.31164062 -42.91289063 25.2990625 -43.171875 26.31640625 C-43.92467017 30.06811904 -43.92467017 30.06811904 -43.72265625 36.44921875 C-24.58265625 36.44921875 -5.44265625 36.44921875 14.27734375 36.44921875 C12.91573472 22.83312841 11.88354581 15.40987215 1.90234375 6.13671875 C-4.12313351 1.30844331 -10.23287843 -0.2057534 -17.91796875 0.0390625 C-26.0963089 1.23505932 -32.64980464 6.09806236 -37.72265625 12.44921875 Z M-43.72265625 39.44921875 C-43.72265625 57.26921875 -43.72265625 75.08921875 -43.72265625 93.44921875 C-24.58265625 93.44921875 -5.44265625 93.44921875 14.27734375 93.44921875 C14.27734375 75.62921875 14.27734375 57.80921875 14.27734375 39.44921875 C-4.86265625 39.44921875 -24.00265625 39.44921875 -43.72265625 39.44921875 Z " fill="#0C2B1B" transform="translate(46.72265625,2.55078125)"/>
<path d="M0 0 C0.33 0 0.66 0 1 0 C1 18.48 1 36.96 1 56 C-12.2 56 -25.4 56 -39 56 C-37.4168384 52.8336768 -36.27415002 50.97886265 -34 48.4375 C-32.12253722 46.33004803 -30.57778314 44.36667471 -29 42 C-25.375 41.8125 -25.375 41.8125 -22 42 C-22 39.36 -22 36.72 -22 34 C-19.03 34 -16.06 34 -13 34 C-13 30.37 -13 26.74 -13 23 C-13.66 23 -14.32 23 -15 23 C-13.59954222 19.02126354 -11.7120313 15.99425975 -9.1875 12.625 C-8.47851562 11.67238281 -7.76953125 10.71976563 -7.0390625 9.73828125 C-6.02972656 8.38283203 -6.02972656 8.38283203 -5 7 C-4.0169277 5.60691461 -3.03701524 4.21158474 -2.0625 2.8125 C-1.381875 1.884375 -0.70125 0.95625 0 0 Z " fill="#49F29E" transform="translate(113,79)"/>
<path d="M0 0 C4.21654356 1.48635116 7.62478605 3.61249159 11.3125 6.125 C12.91544922 7.21167969 12.91544922 7.21167969 14.55078125 8.3203125 C15.76314453 9.15175781 15.76314453 9.15175781 17 10 C14.73664311 16.32440395 11.13218351 20.27464467 5.234375 23.5234375 C-1.03470059 26.42330402 -6.13188914 28.14694259 -13.0625 28.25 C-14.62677734 28.28867188 -14.62677734 28.28867188 -16.22265625 28.328125 C-19 28 -19 28 -20.87109375 26.484375 C-21.24363281 25.99453125 -21.61617187 25.5046875 -22 25 C-21.27554688 24.57589844 -20.55109375 24.15179688 -19.8046875 23.71484375 C-9.74135917 17.6097579 -3.7470318 11.2410954 0 0 Z " fill="#4AF4A0" transform="translate(62,112)"/>
<path d="M0 0 C3.63 0 7.26 0 11 0 C11 2.97 11 5.94 11 9 C13.97 9 16.94 9 20 9 C20 12.3 20 15.6 20 19 C17.03 19 14.06 19 11 19 C11.020625 20.299375 11.04125 21.59875 11.0625 22.9375 C11.08399454 24.29165633 11.07148199 25.64756083 11 27 C10 28 10 28 7.71484375 28.09765625 C6.34005859 28.08025391 6.34005859 28.08025391 4.9375 28.0625 C4.01839844 28.05347656 3.09929688 28.04445313 2.15234375 28.03515625 C1.44207031 28.02355469 0.73179688 28.01195313 0 28 C0 25.03 0 22.06 0 19 C-2.97 19 -5.94 19 -9 19 C-9 15.7 -9 12.4 -9 9 C-6.36 8.67 -3.72 8.34 -1 8 C-0.67 5.36 -0.34 2.72 0 0 Z " fill="#030A07" transform="translate(28,55)"/>
<path d="M0 0 C12.85219949 1.38942697 23.88771433 3.97305232 32.76171875 13.98828125 C39.27671152 22.36470053 40.23207109 30.64798144 39 41 C36.64777936 49.73518829 30.36065911 55.81133208 22.734375 60.34765625 C17.7262545 62.79042831 12.59645914 64.06246048 7 64 C6.67 63.67 6.34 63.34 6 63 C3.67182036 62.63239269 1.3381615 62.29758419 -1 62 C-1.02312883 54.58540058 -1.04091785 47.17080889 -1.05181217 39.75618076 C-1.05703982 36.31359652 -1.06413531 32.87103688 -1.07543945 29.4284668 C-1.08834235 25.47444957 -1.09322918 21.52044244 -1.09765625 17.56640625 C-1.10281754 16.32476212 -1.10797882 15.08311798 -1.11329651 13.80384827 C-1.11337204 12.66274094 -1.11344757 11.52163361 -1.11352539 10.34594727 C-1.115746 9.335569 -1.11796661 8.32519073 -1.12025452 7.28419495 C-1 5 -1 5 0 4 C2.98889359 3.54234333 5.98969648 3.29679049 9 3 C6.03 2.67 3.06 2.34 0 2 C0 1.34 0 0.68 0 0 Z M0 5 C0 23.48 0 41.96 0 61 C12.04197947 61 18.08582927 60.05168749 27 52.4375 C27.66 51.633125 28.32 50.82875 29 50 C30.0828125 48.7315625 30.0828125 48.7315625 31.1875 47.4375 C36.28984509 40.57572556 35.77682914 33.21803463 35 25 C33.91455864 21.6628989 32.42317784 19.51140034 30 17 C29.40703125 16.37738281 28.8140625 15.75476563 28.203125 15.11328125 C19.84873721 7.1431953 11.46304945 5 0 5 Z " fill="#3A5849" transform="translate(117,73)"/>
<path d="M0 0 C6.30356712 4.33069497 10.21588772 10.04437098 13.171875 17.03125 C15.15083223 28.90499339 13.61577094 39.25181925 7.796875 49.78125 C6.806875 48.79125 5.816875 47.80125 4.796875 46.78125 C5.27546741 45.17691191 5.75477058 43.57278584 6.234375 41.96875 C6.50121094 41.07542969 6.76804688 40.18210938 7.04296875 39.26171875 C7.60075373 37.42651945 8.19032075 35.60091274 8.796875 33.78125 C9.62139386 24.72332134 9.26673214 17.28158441 3.796875 9.78125 C-0.99367365 4.30467617 -6.56606274 1.42528642 -13.734375 0.4296875 C-22.87447764 -0.06934109 -31.26810675 3.01360305 -38.265625 8.90625 C-39.81972942 10.36940175 -41.25055702 11.8368243 -42.63671875 13.4609375 C-44.203125 14.78125 -44.203125 14.78125 -48.203125 14.78125 C-48.203125 11.15125 -48.203125 7.52125 -48.203125 3.78125 C-47.873125 3.78125 -47.543125 3.78125 -47.203125 3.78125 C-46.873125 5.76125 -46.543125 7.74125 -46.203125 9.78125 C-45.790625 9.40613281 -45.378125 9.03101563 -44.953125 8.64453125 C-32.1014462 -2.74412161 -16.20142594 -8.96249095 0 0 Z " fill="#536D60" transform="translate(111.203125,23.21875)"/>
<path d="M0 0 C7.67657267 4.8850917 13.31328656 11.82515285 16.27734375 20.44921875 C16.27734375 21.76921875 16.27734375 23.08921875 16.27734375 24.44921875 C15.61734375 24.44921875 14.95734375 24.44921875 14.27734375 24.44921875 C14.27734375 26.42921875 14.27734375 28.40921875 14.27734375 30.44921875 C12.74824443 27.66675933 11.99979178 25.32637475 11.52734375 22.19921875 C9.84636432 14.32447666 4.67180959 9.11972426 -1.796875 4.63671875 C-7.70790631 0.99178261 -13.93743058 0.58144839 -20.72265625 1.44921875 C-28.43843012 3.79008682 -34.50823569 8.59350236 -38.72265625 15.44921875 C-40.44822893 20.0604949 -41.68118058 24.63239379 -42.72265625 29.44921875 C-43.38265625 28.45921875 -44.04265625 27.46921875 -44.72265625 26.44921875 C-45.05265625 30.40921875 -45.38265625 34.36921875 -45.72265625 38.44921875 C-46.05265625 38.44921875 -46.38265625 38.44921875 -46.72265625 38.44921875 C-47.18811046 27.45070821 -46.70359987 18.18522438 -39.52734375 9.40234375 C-28.88036808 -2.12035719 -15.22482761 -7.21976018 0 0 Z " fill="#314139" transform="translate(46.72265625,2.55078125)"/>
<path d="M0 0 C0.33 0 0.66 0 1 0 C1 3.96 1 7.92 1 12 C19.81 12 38.62 12 58 12 C58 12.33 58 12.66 58 13 C39.19 13 20.38 13 1 13 C1 31.48 1 49.96 1 69 C20.14 69 39.28 69 59 69 C59 69.33 59 69.66 59 70 C30.29 70.495 30.29 70.495 1 71 C0.67 73.97 0.34 76.94 0 80 C-0.33 80 -0.66 80 -1 80 C-1.81469662 71.72040604 -2.14806961 63.5359264 -2.1328125 55.21875 C-2.13376923 54.04340698 -2.13472595 52.86806396 -2.13571167 51.65710449 C-2.13638748 49.18985948 -2.13457533 46.72261262 -2.13037109 44.25537109 C-2.12501437 40.51004996 -2.13033664 36.76484872 -2.13671875 33.01953125 C-2.13605786 30.60677057 -2.13477648 28.19400997 -2.1328125 25.78125 C-2.13483673 24.67777222 -2.13686096 23.57429443 -2.13894653 22.43737793 C-2.07849027 2.07849027 -2.07849027 2.07849027 0 0 Z " fill="#050E0A" transform="translate(2,28)"/>
<path d="M0 0 C1.125 3.75 1.125 3.75 0 6 C2.97 6 5.94 6 9 6 C9.495 6.99 9.495 6.99 10 8 C6.7 8.33 3.4 8.66 0 9 C-0.33 27.81 -0.66 46.62 -1 66 C1.31 66 3.62 66 6 66 C6.33 66.66 6.66 67.32 7 68 C-10.16 68 -27.32 68 -45 68 C-44.505 67.01 -44.505 67.01 -44 66 C-30.47 66 -16.94 66 -3 66 C-3 47.19 -3 28.38 -3 9 C-3.66 8.67 -4.32 8.34 -5 8 C-5 6.68 -5 5.36 -5 4 C-4.01 4 -3.02 4 -2 4 C-2 3.01 -2 2.02 -2 1 C-1.34 0.67 -0.68 0.34 0 0 Z " fill="#030906" transform="translate(117,69)"/>
<path d="M0 0 C0.495 1.485 0.495 1.485 1 3 C1.66 3 2.32 3 3 3 C3 6.63 3 10.26 3 14 C0.03 14 -2.94 14 -6 14 C-6 16.64 -6 19.28 -6 22 C-7.093125 22.0825 -8.18625 22.165 -9.3125 22.25 C-13.03443943 22.62010299 -13.03443943 22.62010299 -14.8125 25.0625 C-15.204375 25.701875 -15.59625 26.34125 -16 27 C-16.66 27 -17.32 27 -18 27 C-18.061875 26.13568359 -18.061875 26.13568359 -18.125 25.25390625 C-19.45653725 21.82400895 -21.91198053 20.82745531 -25 18.9375 C-30.89471083 15.31586752 -30.89471083 15.31586752 -32 12 C-27.38127938 12.53985046 -24.47604931 14.43965817 -20.6875 17.0625 C-19.61886719 17.79597656 -18.55023438 18.52945313 -17.44921875 19.28515625 C-16.23685547 20.13400391 -16.23685547 20.13400391 -15 21 C-14.7834375 20.33484375 -14.566875 19.6696875 -14.34375 18.984375 C-12.5531832 15.00765106 -10.09884232 11.73526916 -7.5 8.25 C-7.00113281 7.56550781 -6.50226563 6.88101563 -5.98828125 6.17578125 C-2.26221546 1.13110773 -2.26221546 1.13110773 0 0 Z " fill="#081B11" transform="translate(97,99)"/>
<path d="M0 0 C0.33 0 0.66 0 1 0 C1 22.11 1 44.22 1 67 C1.99 67.495 1.99 67.495 3 68 C1.02 68.495 1.02 68.495 -1 69 C-1 65.04 -1 61.08 -1 57 C-20.14 57 -39.28 57 -59 57 C-59 56.01 -59 55.02 -59 54 C-39.53 54 -20.06 54 0 54 C0 36.18 0 18.36 0 0 Z " fill="#091F14" transform="translate(62,42)"/>
<path d="M0 0 C0.99 0 1.98 0 3 0 C3.08636719 0.82242188 3.17273438 1.64484375 3.26171875 2.4921875 C4.83089155 14.95919338 9.20913065 23.20913065 18 32 C17.67 32.33 17.34 32.66 17 33 C18.32 34.32 19.64 35.64 21 37 C19.02 36.34 17.04 35.68 15 35 C15 34.34 15 33.68 15 33 C14.401875 32.73445313 13.80375 32.46890625 13.1875 32.1953125 C7.20555396 28.92660627 3.37604008 22.21425867 1 16 C0.07459073 12.34042698 -0.10789257 8.95508348 -0.0625 5.1875 C-0.05347656 4.21167969 -0.04445312 3.23585938 -0.03515625 2.23046875 C-0.02355469 1.49441406 -0.01195312 0.75835937 0 0 Z " fill="#26372F" transform="translate(0,99)"/>
<path d="M0 0 C-3 1 -3 1 -6 0 C-8.61864161 -0.1484944 -11.1932477 -0.2310027 -13.8125 -0.25 C-14.86147461 -0.2809375 -14.86147461 -0.2809375 -15.93164062 -0.3125 C-20.72306977 -0.34835728 -23.89852236 0.55327864 -28 3 C-28 3.66 -28 4.32 -28 5 C-29.97133986 6.37535339 -31.97681922 7.70211044 -34 9 C-36.36826754 10.81750765 -38.57406951 12.52295785 -40.5625 14.75 C-42 16 -42 16 -46 16 C-46 12.37 -46 8.74 -46 5 C-45.67 5 -45.34 5 -45 5 C-44.67 6.98 -44.34 8.96 -44 11 C-43.5875 10.62488281 -43.175 10.24976563 -42.75 9.86328125 C-29.69994902 -1.70116125 -16.82183742 -5.79112436 0 0 Z " fill="#25372E" transform="translate(109,22)"/>
<path d="M0 0 C0.33 0 0.66 0 1 0 C1 18.48 1 36.96 1 56 C11.44702516 55.32006984 11.44702516 55.32006984 20 52 C21.32 52 22.64 52 24 52 C24 52.99 24 53.98 24 55 C22.274773 55.67679658 20.54461061 56.34102 18.8125 57 C17.84957031 57.37125 16.88664062 57.7425 15.89453125 58.125 C13.0618303 58.98130906 10.93566326 59.25028745 8 59 C7.67 58.67 7.34 58.34 7 58 C4.69 57.67 2.38 57.34 0 57 C0 38.19 0 19.38 0 0 Z " fill="#17452F" transform="translate(116,78)"/>
<path d="M0 0 C12.6393067 1.36641154 21.15794007 3.95471941 31 12 C29.33203125 13.171875 29.33203125 13.171875 27 14 C24.44921875 12.953125 24.44921875 12.953125 21.6875 11.25 C14.56815366 7.11040656 8.10965196 5.69879087 0 5 C0 4.67 0 4.34 0 4 C4.455 3.505 4.455 3.505 9 3 C6.03 2.67 3.06 2.34 0 2 C0 1.34 0 0.68 0 0 Z " fill="#476456" transform="translate(117,73)"/>
<path d="M0 0 C8.36740618 4.31048197 13.80718218 11.21607263 17 20 C17 21.32 17 22.64 17 24 C16.34 24 15.68 24 15 24 C15 25.98 15 27.96 15 30 C13.47090068 27.21754058 12.72244803 24.877156 12.25 21.75 C10.68759053 14.27011843 5.41176764 9.09342837 0 4 C0.66 4 1.32 4 2 4 C2 3.34 2 2.68 2 2 C1.34 2 0.68 2 0 2 C0 1.34 0 0.68 0 0 Z " fill="#2E443A" transform="translate(46,3)"/>
<path d="M0 0 C0.33 0 0.66 0 1 0 C1.33 10.56 1.66 21.12 2 32 C3.32 31.67 4.64 31.34 6 31 C6.66 31.66 7.32 32.32 8 33 C7.625 35.125 7.625 35.125 7 37 C5.0625 37.5625 5.0625 37.5625 3 38 C2.67 37.67 2.34 37.34 2 37 C1.67 46.57 1.34 56.14 1 66 C0.67 66 0.34 66 0 66 C0 44.22 0 22.44 0 0 Z " fill="#0B291A" transform="translate(63,43)"/>
<path d="M0 0 C0.33 0.66 0.66 1.32 1 2 C1.66 2.33 2.32 2.66 3 3 C0.36 5.97 -2.28 8.94 -5 12 C-4.01 12.66 -3.02 13.32 -2 14 C-4.64 14 -7.28 14 -10 14 C-10.33 14.66 -10.66 15.32 -11 16 C-16.22222222 18 -16.22222222 18 -19 18 C-19 17.34 -19 16.68 -19 16 C-20.32 15.67 -21.64 15.34 -23 15 C-21.91332031 14.63648438 -21.91332031 14.63648438 -20.8046875 14.265625 C-11.74137121 11.12367535 -5.95292611 7.51504147 0 0 Z " fill="#111D17" transform="translate(78,124)"/>
<path d="M0 0 C0.67224609 -0.00966797 1.34449219 -0.01933594 2.03710938 -0.02929688 C7.0594898 0.05416399 10.51481918 1.26929367 14.9375 3.4375 C14.9375 4.0975 14.9375 4.7575 14.9375 5.4375 C15.8965625 5.623125 15.8965625 5.623125 16.875 5.8125 C17.8959375 6.121875 17.8959375 6.121875 18.9375 6.4375 C19.4325 7.4275 19.4325 7.4275 19.9375 8.4375 C18.9475 8.7675 17.9575 9.0975 16.9375 9.4375 C14.91701869 8.13541204 12.91938345 6.79761609 10.9375 5.4375 C4.59460671 2.48731708 -2.87822478 2.45326948 -9.5 4.5 C-10.345625 4.809375 -11.19125 5.11875 -12.0625 5.4375 C-14.22265625 4.99609375 -14.22265625 4.99609375 -16.0625 4.4375 C-10.76949056 0.90882704 -6.31823428 0.02911629 0 0 Z " fill="#07120C" transform="translate(95.0625,20.5625)"/>
<path d="M0 0 C0.99 1.485 0.99 1.485 2 3 C4.54138301 3.47775114 4.54138301 3.47775114 7.55126953 3.43237305 C8.71232208 3.45216721 9.87337463 3.47196136 11.0696106 3.49235535 C12.32796722 3.49874527 13.58632385 3.50513519 14.8828125 3.51171875 C16.16735321 3.52966995 17.45189392 3.54762115 18.77536011 3.56611633 C22.19149661 3.61368892 25.60756676 3.64345073 29.02392578 3.66955566 C32.50957349 3.69932502 35.99499231 3.74586762 39.48046875 3.79101562 C46.32018228 3.8771308 53.15997195 3.94443926 60 4 C60 4.33 60 4.66 60 5 C31.29 5.495 31.29 5.495 2 6 C1.67 8.97 1.34 11.94 1 15 C0.67 15 0.34 15 0 15 C0 10.05 0 5.1 0 0 Z " fill="#000000" transform="translate(1,93)"/>
<path d="M0 0 C3.92604806 0.39462854 6.58704345 1.42602938 10.03125 3.3046875 C10.03125 3.9646875 10.03125 4.6246875 10.03125 5.3046875 C10.69125 5.3046875 11.35125 5.3046875 12.03125 5.3046875 C12.03125 5.9646875 12.03125 6.6246875 12.03125 7.3046875 C9.3298682 6.82797306 6.86443789 6.24402855 4.28125 5.3046875 C0.83030393 4.24285794 -2.24579646 3.89997037 -5.84375 3.6796875 C-6.99617188 3.60492188 -8.14859375 3.53015625 -9.3359375 3.453125 C-10.63917969 3.37964844 -10.63917969 3.37964844 -11.96875 3.3046875 C-8.7155053 -0.90670461 -4.94150525 -0.1079455 0 0 Z " fill="#18261F" transform="translate(35.96875,-0.3046875)"/>
<path d="M0 0 C2.25 -0.3125 2.25 -0.3125 5 0 C9.09573199 3.86819132 9.86557891 7.47643305 10.07568359 12.98388672 C10.09796302 15.11528488 10.08755202 17.24365122 10.0625 19.375 C10.05798828 20.11105469 10.05347656 20.84710938 10.04882812 21.60546875 C10.03715142 23.40368158 10.01922011 25.20185197 10 27 C9.67 27 9.34 27 9 27 C8.98582031 26.24976562 8.97164062 25.49953125 8.95703125 24.7265625 C8.58699364 16.78575534 7.2013445 9.17175756 1.3359375 3.34765625 C0 2 0 2 0 0 Z " fill="#375043" transform="translate(144,86)"/>
<path d="M0 0 C0 4.58938641 -2.92099402 6.80779527 -6 10 C-9.48387097 13 -9.48387097 13 -12 13 C-12 12.34 -12 11.68 -12 11 C-12.66 10.67 -13.32 10.34 -14 10 C-9.25 6 -9.25 6 -7 6 C-6.773125 5.38125 -6.54625 4.7625 -6.3125 4.125 C-4.62070165 1.38589791 -3.00755839 0.94975528 0 0 Z " fill="#2F463B" transform="translate(152,119)"/>
<path d="M0 0 C0.33 0.66 0.66 1.32 1 2 C0.67 2.66 0.34 3.32 0 4 C0.66 4 1.32 4 2 4 C2 6.97 2 9.94 2 13 C-0.31 13 -2.62 13 -5 13 C-4.5020163 9.26512223 -4.12508244 7.18762365 -2 4 C-2 3.01 -2 2.02 -2 1 C-1.34 0.67 -0.68 0.34 0 0 Z " fill="#010403" transform="translate(97,99)"/>
<path d="M0 0 C0.33 1.32 0.66 2.64 1 4 C2.98 3.67 4.96 3.34 7 3 C6.67 3.99 6.34 4.98 6 6 C4.68 5.67 3.36 5.34 2 5 C1.83177734 6.08861328 1.83177734 6.08861328 1.66015625 7.19921875 C0.97038613 10.12563993 -0.05510814 12.22287809 -1.5625 14.8125 C-2.01753906 15.60269531 -2.47257812 16.39289063 -2.94140625 17.20703125 C-3.29074219 17.79871094 -3.64007813 18.39039062 -4 19 C-5.32 18.34 -6.64 17.68 -8 17 C-7.401875 16.319375 -6.80375 15.63875 -6.1875 14.9375 C-2.79235856 10.37831007 -0.85091591 5.61604503 0 0 Z " fill="#0C291A" transform="translate(60,107)"/>
<path d="M0 0 C3.12902184 2.99297741 3.97118409 4.19654462 4.1328125 8.703125 C4.13547616 10.2187499 4.13264172 11.73439203 4.125 13.25 C4.12886719 14.00152344 4.13273437 14.75304688 4.13671875 15.52734375 C4.12927026 19.79532621 3.84330157 23.79687789 3 28 C2.34 28 1.68 28 1 28 C1.00523682 27.40050537 1.01047363 26.80101074 1.01586914 26.18334961 C1.03681443 23.43474398 1.04971556 20.68615522 1.0625 17.9375 C1.07087891 16.99455078 1.07925781 16.05160156 1.08789062 15.08007812 C1.10581103 9.9369232 0.89259611 5.06741573 0 0 Z " fill="#06120C" transform="translate(119,36)"/>
<path d="M0 0 C4.22489602 0.53280216 6.54080716 1.87678199 9.8125 4.5625 C10.60269531 5.20316406 11.39289063 5.84382813 12.20703125 6.50390625 C12.79871094 6.99761719 13.39039063 7.49132812 14 8 C12.265625 9.13671875 12.265625 9.13671875 10 10 C7.859375 9.20703125 7.859375 9.20703125 5.75 7.8125 C5.04359375 7.36519531 4.3371875 6.91789062 3.609375 6.45703125 C3.07828125 5.97621094 2.5471875 5.49539062 2 5 C2 4.01 2 3.02 2 2 C1.34 1.34 0.68 0.68 0 0 Z " fill="#475D52" transform="translate(134,77)"/>
<path d="M0 0 C0.66 0.33 1.32 0.66 2 1 C1.67 1.66 1.34 2.32 1 3 C1.66 3.33 2.32 3.66 3 4 C2.01 4 1.02 4 0 4 C-0.33 4.66 -0.66 5.32 -1 6 C-6.22222222 8 -6.22222222 8 -9 8 C-9 7.34 -9 6.68 -9 6 C-10.32 5.67 -11.64 5.34 -13 5 C-12.22914062 4.72285156 -11.45828125 4.44570312 -10.6640625 4.16015625 C-9.66117188 3.79792969 -8.65828125 3.43570313 -7.625 3.0625 C-6.62726562 2.70285156 -5.62953125 2.34320313 -4.6015625 1.97265625 C-2.06495835 1.07650708 -2.06495835 1.07650708 0 0 Z " fill="#14291F" transform="translate(68,134)"/>
<path d="M0 0 C1.515625 1.84765625 1.515625 1.84765625 3 4 C2.75 6.4375 2.75 6.4375 2 9 C1.814375 9.928125 1.62875 10.85625 1.4375 11.8125 C1.293125 12.534375 1.14875 13.25625 1 14 C0.34 13.01 -0.32 12.02 -1 11 C-1.33 14.96 -1.66 18.92 -2 23 C-2.33 23 -2.66 23 -3 23 C-3.34937193 14.74447081 -2.94397288 7.7629761 0 0 Z " fill="#355344" transform="translate(3,18)"/>
<path d="M0 0 C-3 1 -3 1 -6 0 C-8.61864161 -0.1484944 -11.1932477 -0.2310027 -13.8125 -0.25 C-14.86147461 -0.2809375 -14.86147461 -0.2809375 -15.93164062 -0.3125 C-20.80083229 -0.34893923 -23.74561372 0.79087503 -28 3 C-30.375 2.6875 -30.375 2.6875 -32 2 C-20.45086996 -3.40972322 -12.13249816 -4.17676166 0 0 Z " fill="#7F968B" transform="translate(109,22)"/>
<path d="M0 0 C0 0.99 0 1.98 0 3 C-5.36439644 5.68219822 -9.01006953 6.3152595 -15 6 C-15 5.34 -15 4.68 -15 4 C-13.25307205 3.32532438 -11.50231475 2.66055844 -9.75 2 C-8.77546875 1.62875 -7.8009375 1.2575 -6.796875 0.875 C-4 0 -4 0 0 0 Z " fill="#182F24" transform="translate(140,130)"/>
<path d="M0 0 C5.61 0 11.22 0 17 0 C17 0.66 17 1.32 17 2 C13.73774826 2.97403725 10.77261339 3.13415799 7.375 3.125 C5.93253906 3.12886719 5.93253906 3.12886719 4.4609375 3.1328125 C2 3 2 3 0 2 C0 1.34 0 0.68 0 0 Z " fill="#070F0B" transform="translate(42,140)"/>
<path d="M0 0 C0.33 0 0.66 0 1 0 C1.09765625 6.15234375 1.09765625 6.15234375 1 8 C0 9 0 9 -2.28515625 9.09765625 C-3.65994141 9.08025391 -3.65994141 9.08025391 -5.0625 9.0625 C-5.98160156 9.05347656 -6.90070312 9.04445313 -7.84765625 9.03515625 C-8.55792969 9.02355469 -9.26820312 9.01195313 -10 9 C-10 6.36 -10 3.72 -10 1 C-9.67 1 -9.34 1 -9 1 C-9 2.98 -9 4.96 -9 7 C-6.36 7 -3.72 7 -1 7 C-1.020625 6.030625 -1.04125 5.06125 -1.0625 4.0625 C-1 1 -1 1 0 0 Z " fill="#123C27" transform="translate(38,74)"/>
<path d="M0 0 C2.125 0.375 2.125 0.375 4 1 C4.625 2.875 4.625 2.875 5 5 C4.34 5.66 3.68 6.32 3 7 C0.875 6.625 0.875 6.625 -1 6 C-1.625 4.125 -1.625 4.125 -2 2 C-1.34 1.34 -0.68 0.68 0 0 Z " fill="#263C31" transform="translate(66,74)"/>
<path d="M0 0 C1.67542976 0.28604898 3.34385343 0.61781233 5 1 C5.5625 2.9375 5.5625 2.9375 6 5 C5 6 5 6 2.4375 6.0625 C1.2309375 6.0315625 1.2309375 6.0315625 0 6 C-0.38218767 4.34385343 -0.71395102 2.67542976 -1 1 C-0.67 0.67 -0.34 0.34 0 0 Z " fill="#273E32" transform="translate(95,43)"/>
<path d="M0 0 C3.92582871 1.30860957 6.3987937 2.74849213 9 6 C9.875 8.625 9.875 8.625 10 11 C9.34 11.66 8.68 12.32 8 13 C4 8.5 4 8.5 4 4 C3.01 3.67 2.02 3.34 1 3 C0.67 2.01 0.34 1.02 0 0 Z " fill="#455D52" transform="translate(109,23)"/>
<path d="M0 0 C2.0625 0.4375 2.0625 0.4375 4 1 C4.625 2.875 4.625 2.875 5 5 C4.34 5.66 3.68 6.32 3 7 C0.875 6.625 0.875 6.625 -1 6 C-1.042721 4.33388095 -1.04063832 2.66617115 -1 1 C-0.67 0.67 -0.34 0.34 0 0 Z " fill="#26372E" transform="translate(128,104)"/>
<path d="M0 0 C0.99 0.33 1.98 0.66 3 1 C4.47271188 4.93215655 4.11005061 9.10943954 4.0625 13.25 C4.05798828 13.99507812 4.05347656 14.74015625 4.04882812 15.5078125 C4.03709246 17.3385764 4.0191585 19.16929873 4 21 C3.67 21 3.34 21 3 21 C2.92652344 19.78763672 2.92652344 19.78763672 2.8515625 18.55078125 C2.73941406 16.94783203 2.73941406 16.94783203 2.625 15.3125 C2.55539063 14.25675781 2.48578125 13.20101562 2.4140625 12.11328125 C2.01023766 9.07697562 1.14838468 6.81494294 0 4 C0 2.68 0 1.36 0 0 Z " fill="#07110C" transform="translate(150,92)"/>
<path d="M0 0 C1.98 0 3.96 0 6 0 C6 1.65 6 3.3 6 5 C4.34385343 5.38218767 2.67542976 5.71395102 1 6 C0 5 0 5 -0.0625 2.4375 C-0.041875 1.633125 -0.02125 0.82875 0 0 Z " fill="#263C31" transform="translate(76,82)"/>
<path d="M0 0 C1.65 0.33 3.3 0.66 5 1 C4.67 2.65 4.34 4.3 4 6 C2.35 5.67 0.7 5.34 -1 5 C-0.67 3.35 -0.34 1.7 0 0 Z " fill="#242F29" transform="translate(31,109)"/>
<path d="M0 0 C0.99 0 1.98 0 3 0 C3.33 4.29 3.66 8.58 4 13 C3.01 13.495 3.01 13.495 2 14 C-0.28062828 10.57905758 -0.21925007 9.31812778 -0.125 5.3125 C-0.10695312 4.31863281 -0.08890625 3.32476562 -0.0703125 2.30078125 C-0.04710937 1.54152344 -0.02390625 0.78226562 0 0 Z " fill="#192620" transform="translate(0,99)"/>
<path d="M0 0 C1.65 0.33 3.3 0.66 5 1 C4.67 2.65 4.34 4.3 4 6 C2.35 5.67 0.7 5.34 -1 5 C-0.67 3.35 -0.34 1.7 0 0 Z " fill="#24312A" transform="translate(68,94)"/>
<path d="M0 0 C1.65 0.33 3.3 0.66 5 1 C4.67 2.65 4.34 4.3 4 6 C2.35 5.67 0.7 5.34 -1 5 C-0.67 3.35 -0.34 1.7 0 0 Z " fill="#24312B" transform="translate(74,62)"/>
<path d="M0 0 C2.97 0 5.94 0 9 0 C9.33 0.99 9.66 1.98 10 3 C11.32303717 3.3721042 12.65737935 3.70630173 14 4 C14.33 4.66 14.66 5.32 15 6 C14.01 6.33 13.02 6.66 12 7 C9.97951869 5.69791204 7.98188345 4.36011609 6 3 C2.7750792 1.75675853 2.7750792 1.75675853 0 1 C0 0.67 0 0.34 0 0 Z " fill="#0D2619" transform="translate(100,23)"/>
<path d="M0 0 C1.65 0.33 3.3 0.66 5 1 C4.67 2.65 4.34 4.3 4 6 C2.35 5.67 0.7 5.34 -1 5 C-0.67 3.35 -0.34 1.7 0 0 Z " fill="#242E29" transform="translate(31,23)"/>
<path d="M0 0 C1.65 0.33 3.3 0.66 5 1 C4.67 2.65 4.34 4.3 4 6 C2.35 5.67 0.7 5.34 -1 5 C-0.67 3.35 -0.34 1.7 0 0 Z " fill="#242E29" transform="translate(85,70)"/>
<path d="M0 0 C2 1 2 1 4 4 C3.01 5.485 3.01 5.485 2 7 C-1.465 5.02 -1.465 5.02 -5 3 C-2 2 -2 2 0 2 C0 1.34 0 0.68 0 0 Z " fill="#34493F" transform="translate(39,136)"/>
<path d="M0 0 C3.06081203 2.75473082 4.89882863 4.99574049 6 9 C5.625 11.3125 5.625 11.3125 5 13 C4.01 10.69 3.02 8.38 2 6 C1.01 6.495 1.01 6.495 0 7 C0 4.69 0 2.38 0 0 Z " fill="#5F7C6E" transform="translate(118,31)"/>
<path d="M0 0 C1.32 0.33 2.64 0.66 4 1 C4.68707555 3.49064888 5 5.37886292 5 8 C4.34 8.66 3.68 9.32 3 10 C0.96564469 6.27034861 0 4.33094958 0 0 Z " fill="#374C42" transform="translate(1,111)"/>
<path d="M0 0 C0.33 0.99 0.66 1.98 1 3 C-0.62339805 4.70884005 -2.29319053 6.37446717 -4 8 C-4.66 8 -5.32 8 -6 8 C-4.73058503 4.08597051 -3.48832306 2.20927127 0 0 Z " fill="#06140D" transform="translate(54,124)"/>
<path d="M0 0 C0.33 0.66 0.66 1.32 1 2 C-1.25 2.75 -1.25 2.75 -4 3 C-6.3125 1.0625 -6.3125 1.0625 -8 -1 C-4.61951646 -2.20731555 -3.00565087 -1.96921954 0 0 Z " fill="#3E584B" transform="translate(147,84)"/>
<path d="M0 0 C0.99 0.99 1.98 1.98 3 3 C2.34 4.98 1.68 6.96 1 9 C0.01 8.01 -0.98 7.02 -2 6 C-1.34 4.02 -0.68 2.04 0 0 Z " fill="#354D41" transform="translate(118,64)"/>
<path d="M0 0 C0.66 0.33 1.32 0.66 2 1 C0.71451591 2.33929505 -0.57858155 3.67128643 -1.875 5 C-2.59429687 5.7425 -3.31359375 6.485 -4.0546875 7.25 C-6 9 -6 9 -8 9 C-6.4169423 4.7257442 -3.49431596 2.73468206 0 0 Z " fill="#44D992" transform="translate(77,28)"/>
<path d="M0 0 C0.99 0.33 1.98 0.66 3 1 C2.19185349 2.33597652 1.37836819 3.668725 0.5625 5 C0.11003906 5.7425 -0.34242188 6.485 -0.80859375 7.25 C-1.20175781 7.8275 -1.59492187 8.405 -2 9 C-2.33 9 -2.66 9 -3 9 C-3.26218749 5.85375007 -3.24754367 4.38162983 -1.5 1.6875 C-1.005 1.130625 -0.51 0.57375 0 0 Z " fill="#08120D" transform="translate(7,14)"/>
<path d="M0 0 C0.66 0.33 1.32 0.66 2 1 C1.67 1.66 1.34 2.32 1 3 C1.66 3.33 2.32 3.66 3 4 C2.01 4 1.02 4 0 4 C-0.33 4.66 -0.66 5.32 -1 6 C-1.99 6.495 -1.99 6.495 -3 7 C-3.33 5.35 -3.66 3.7 -4 2 C-2.125 0.9375 -2.125 0.9375 0 0 Z " fill="#2B4036" transform="translate(68,134)"/>
<path d="M0 0 C1.125 3.75 1.125 3.75 0 6 C2.97 6 5.94 6 9 6 C9 6.33 9 6.66 9 7 C5.7 7 2.4 7 -1 7 C-1.33 5.02 -1.66 3.04 -2 1 C-1.34 0.67 -0.68 0.34 0 0 Z " fill="#16221C" transform="translate(117,69)"/>
<path d="M0 0 C0.33 0 0.66 0 1 0 C1.33 1.98 1.66 3.96 2 6 C2.99 5.67 3.98 5.34 5 5 C4.67 5.99 4.34 6.98 4 8 C3.34 8 2.68 8 2 8 C2 8.99 2 9.98 2 11 C1.34 11 0.68 11 0 11 C0 7.37 0 3.74 0 0 Z " fill="#6F8078" transform="translate(63,27)"/>
<path d="M0 0 C0 0.99 0 1.98 0 3 C-2.64 3 -5.28 3 -8 3 C-8 2.34 -8 1.68 -8 1 C-5.10765685 0.17361624 -3.11257569 0 0 0 Z " fill="#07130D" transform="translate(133,133)"/>
<path d="M0 0 C-1.4096347 0.70180531 -2.82807641 1.38593958 -4.25 2.0625 C-5.03890625 2.44535156 -5.8278125 2.82820313 -6.640625 3.22265625 C-9.25993522 4.08564091 -10.44855176 3.93045933 -13 3 C-11.5903653 2.29819469 -10.17192359 1.61406042 -8.75 0.9375 C-7.96109375 0.55464844 -7.1721875 0.17179687 -6.359375 -0.22265625 C-3.74006478 -1.08564091 -2.55144824 -0.93045933 0 0 Z " fill="#6F847A" transform="translate(90,21)"/>
<path d="M0 0 C0.33 0 0.66 0 1 0 C1.04898438 0.71027344 1.09796875 1.42054687 1.1484375 2.15234375 C1.22320312 3.07144531 1.29796875 3.99054688 1.375 4.9375 C1.44460937 5.85402344 1.51421875 6.77054687 1.5859375 7.71484375 C1.72257812 8.46894531 1.85921875 9.22304687 2 10 C2.66 10.33 3.32 10.66 4 11 C2.68 11.33 1.36 11.66 0 12 C0 8.04 0 4.08 0 0 Z " fill="#05110B" transform="translate(61,99)"/>
<path d="M0 0 C0.33 0.66 0.66 1.32 1 2 C1.66 2.33 2.32 2.66 3 3 C1.02 4.32 -0.96 5.64 -3 7 C-3.66 6.67 -4.32 6.34 -5 6 C-3.35 4.02 -1.7 2.04 0 0 Z " fill="#0E2F1F" transform="translate(78,124)"/>
<path d="M0 0 C4.75 0.75 4.75 0.75 7 3 C4.6875 3.625 4.6875 3.625 2 4 C1.01 3.34 0.02 2.68 -1 2 C-0.67 1.34 -0.34 0.68 0 0 Z " fill="#132C1F" transform="translate(131,77)"/>
</svg>
