<?xml version="1.0" standalone="no"?>
<!DOCTYPE svg PUBLIC "-//W3C//DTD SVG 20010904//EN"
 "http://www.w3.org/TR/2001/REC-SVG-20010904/DTD/svg10.dtd">
<svg version="1.0" xmlns="http://www.w3.org/2000/svg"
 width="156.000000pt" height="157.000000pt" viewBox="0 0 156.000000 157.000000"
 preserveAspectRatio="xMidYMid meet">

<g transform="translate(0.000000,157.000000) scale(0.100000,-0.100000)"
fill="#000000" stroke="none">
<path d="M226 1553 c-69 -21 -164 -116 -197 -198 l-24 -60 0 -415 c0 -410 0
-416 23 -472 45 -112 150 -198 257 -213 28 -4 70 -17 95 -28 65 -31 198 -31
257 0 39 22 54 23 340 26 284 3 301 4 356 26 135 53 221 164 221 285 0 71 -14
111 -58 174 -55 79 -181 142 -283 142 -24 0 -43 2 -43 4 0 2 14 34 32 71 40
86 48 184 23 270 -13 46 -28 70 -74 116 -85 85 -175 107 -292 73 -68 -20 -140
-65 -183 -115 l-33 -40 -7 52 c-13 95 -44 159 -111 226 -48 48 -73 65 -115 77
-66 20 -119 19 -184 -1z m171 -28 c108 -32 200 -158 205 -280 l3 -60 -285 0
-285 0 2 59 c4 119 98 248 202 280 60 19 97 19 158 1z m669 -213 c96 -49 151
-157 142 -277 -6 -75 -54 -189 -75 -181 -18 7 -462 306 -468 315 -5 9 55 72
100 107 82 62 218 78 301 36z m-456 -432 l0 -270 -290 0 -290 0 0 270 0 270
290 0 290 0 0 -270z m297 83 l213 -144 -52 -77 c-54 -81 -249 -365 -253 -370
-2 -2 -42 22 -89 54 l-86 57 0 149 c0 147 0 149 21 138 37 -21 66 23 33 51
-12 10 -20 10 -35 1 -18 -12 -19 -7 -19 154 l0 166 28 -17 c15 -10 123 -83
239 -162z m445 -207 c61 -29 132 -98 154 -151 20 -48 18 -151 -5 -200 -40 -89
-167 -170 -277 -176 l-49 -3 -3 283 -2 284 63 -5 c38 -3 85 -16 119 -32z
m-216 -523 c-6 -15 -396 -18 -396 -3 0 6 4 10 9 10 5 0 27 25 50 55 36 48 46
55 76 55 28 0 36 5 41 24 3 13 4 32 2 42 -2 16 4 20 40 22 l42 3 0 54 c0 29
-5 55 -10 57 -6 2 24 55 67 117 l78 114 3 -269 c1 -148 0 -274 -2 -281z m-526
322 c0 -38 -21 -127 -37 -160 -76 -150 -239 -212 -372 -140 -53 29 -105 84
-134 140 -16 33 -37 122 -37 160 l0 25 290 0 290 0 0 -25z m102 -156 c43 -28
78 -55 78 -60 0 -5 -14 -24 -32 -44 -87 -100 -234 -149 -336 -112 l-32 12 49
23 c63 29 145 118 168 183 10 27 20 49 22 49 3 0 40 -23 83 -51z"/>
<path d="M304 1326 c-10 -26 4 -48 28 -44 17 2 23 10 23 28 0 18 -6 26 -23 28
-13 2 -25 -3 -28 -12z"/>
<path d="M945 1120 c-8 -27 1 -40 30 -40 27 0 41 26 24 46 -17 20 -47 17 -54
-6z"/>
<path d="M278 978 c-3 -43 -3 -43 -45 -46 l-43 -3 0 -49 0 -49 43 -3 c42 -3
42 -3 45 -46 l3 -43 52 3 52 3 3 42 c3 42 3 42 45 45 l42 3 3 48 3 47 -45 0
-45 0 -3 43 -3 42 -52 3 -52 3 -3 -43z"/>
<path d="M734 936 c-10 -26 4 -48 28 -44 17 2 23 10 23 28 0 18 -6 26 -23 28
-13 2 -25 -3 -28 -12z"/>
<path d="M847 864 c-14 -15 -6 -43 14 -49 25 -8 42 6 37 31 -3 19 -38 31 -51
18z"/>
<path d="M756 734 c-9 -22 12 -46 38 -42 15 2 21 10 21 28 0 20 -6 26 -26 28
-18 2 -29 -3 -33 -14z"/>
<path d="M674 616 c-10 -26 4 -48 28 -44 17 2 23 10 23 28 0 18 -6 26 -23 28
-13 2 -25 -3 -28 -12z"/>
<path d="M1271 517 c-25 -31 20 -71 48 -42 12 12 13 19 5 33 -15 22 -38 26
-53 9z"/>
<path d="M304 465 c-9 -23 3 -45 25 -45 26 0 45 32 29 48 -17 17 -48 15 -54
-3z"/>
</g>
</svg>
